<?xml version="1.0" encoding="UTF-8"?>
<svg width="175px" height="138px" viewBox="0 0 175 138" version="1.1" xmlns="http://www.w3.org/2000/svg" xmlns:xlink="http://www.w3.org/1999/xlink">
    <!-- Generator: Sketch 53.2 (72643) - https://sketchapp.com -->
    <title>bar</title>
    <desc>Created with Sketch.</desc>
    <g id="Page-1" stroke="none" stroke-width="1" fill="none" fill-rule="evenodd">
        <g id="bar" fill="#5067A2" fill-rule="nonzero">
            <path d="M121.488231,0 L102.050114,0 C99.36627,-1.1969592e-16 97.1905846,2.17568537 97.1905846,4.85952929 L97.1905846,133.140471 C97.1905846,135.824315 99.36627,138 102.050114,138 L121.488231,138 C124.172075,138 126.34776,135.824315 126.34776,133.140471 L126.34776,4.85952929 C126.34776,2.17568537 124.172075,1.1969592e-16 121.488231,0 Z M170.083523,30.1571753 L150.645406,30.1571753 C147.961562,30.1571753 145.785877,32.3328607 145.785877,35.0167046 L145.785877,132.207289 C145.785877,134.891133 147.961562,137.066819 150.645406,137.066819 L170.083523,137.066819 C172.767367,137.066819 174.943052,134.891133 174.943052,132.207289 L174.943052,35.0167046 C174.943052,32.3328607 172.767367,30.1571753 170.083523,30.1571753 Z M53.4548215,39.8762339 C50.7709777,39.876234 48.5952924,42.0519193 48.5952924,44.7357631 L48.5952924,132.207289 C48.5952924,134.891133 50.7709777,137.066818 53.4548215,137.066819 L72.8929386,137.066819 C75.5767824,137.066818 77.7524677,134.891133 77.7524677,132.207289 L77.7524677,44.7357631 C77.7524676,42.0519193 75.5767824,39.876234 72.8929386,39.8762339 L53.4548215,39.8762339 Z M29.1571753,67.17388 L29.1571753,132.207289 C29.1571753,134.891133 26.9814901,137.066818 24.2976462,137.066819 L4.85952929,137.066819 C2.17568537,137.066819 3.28676086e-16,134.891133 0,132.207289 L0,67.17388 C7.33863613e-08,64.4900361 2.17568542,62.3143508 4.85952929,62.3143508 L24.2976462,62.3143508 C26.98149,62.3143509 29.1571753,64.4900362 29.1571753,67.17388 Z" id="Shape"></path>
        </g>
    </g>
</svg>