<?xml version="1.0" encoding="UTF-8"?>
<svg width="175px" height="98px" viewBox="0 0 175 98" version="1.1" xmlns="http://www.w3.org/2000/svg" xmlns:xlink="http://www.w3.org/1999/xlink">
    <!-- Generator: Sketch 53.2 (72643) - https://sketchapp.com -->
    <title>boxplot</title>
    <desc>Created with Sketch.</desc>
    <g id="Page-1" stroke="none" stroke-width="1" fill="none" fill-rule="evenodd">
        <g id="boxplot" fill="#5067A2" fill-rule="nonzero">
            <path d="M165.206074,4.85900217 L165.206074,43.7310195 L145.770065,43.7310195 L145.770065,14.5770065 C145.770065,11.8934537 143.594616,9.71800434 140.911063,9.71800434 L72.8850325,9.71800434 C70.2014797,9.71800434 68.0260304,11.8934537 68.0260304,14.5770065 L68.0260304,82.6030369 C68.0260304,85.2865897 70.2014797,87.462039 72.8850325,87.462039 L140.911063,87.462039 C143.594616,87.462039 145.770065,85.2865897 145.770065,82.6030369 L145.770065,53.4490239 L165.206074,53.4490239 L165.206074,92.3210412 C165.206074,95.004594 167.381523,97.1800434 170.065076,97.1800434 C172.748629,97.1800434 174.924078,95.004594 174.924078,92.3210412 L174.924078,4.85900217 C174.924078,2.17544937 172.748629,1.43751749e-14 170.065076,1.42108547e-14 C167.381523,-1.05827854e-15 165.206074,2.17544937 165.206074,4.85900217 Z M58.308026,14.5770065 L58.308026,82.6030369 C58.308026,83.8917244 57.7960969,85.1276306 56.8848572,86.0388703 C55.9736176,86.9501099 54.7377114,87.462039 53.4490239,87.462039 L34.0130152,87.462039 C31.3294624,87.462039 29.154013,85.2865897 29.154013,82.6030369 L29.154013,53.4490239 L9.71800434,53.4490239 L9.71800434,92.3210412 C9.71800434,95.004594 7.54255497,97.1800434 4.85900217,97.1800434 C2.17544937,97.1800434 3.28640434e-16,95.004594 0,92.3210412 L0,4.85900217 C-3.28640434e-16,2.17544937 2.17544937,4.31255248e-14 4.85900217,4.26325641e-14 C7.54255497,4.21396035e-14 9.71800434,2.17544937 9.71800434,4.85900217 L9.71800434,43.7310195 L29.154013,43.7310195 L29.154013,14.5770065 C29.154013,11.8934537 31.3294624,9.71800434 34.0130152,9.71800434 L53.4490239,9.71800434 C56.1325767,9.71800434 58.308026,11.8934537 58.308026,14.5770065 L58.308026,14.5770065 Z" id="Shape"></path>
        </g>
    </g>
</svg>