<?xml version="1.0" encoding="UTF-8"?>
<svg width="19px" height="16px" viewBox="0 0 19 16" version="1.1" xmlns="http://www.w3.org/2000/svg" xmlns:xlink="http://www.w3.org/1999/xlink">
    <!-- Generator: Sketch 53.2 (72643) - https://sketchapp.com -->
    <title>Calendar </title>
    <desc>Created with Sketch.</desc>
    <g id="Page-1" stroke="none" stroke-width="1" fill="none" fill-rule="evenodd">
        <g id="Calendar-" fill="#5470C6">
            <path d="M0.5,4 L18.5,4 C18.7761424,4 19,4.22385763 19,4.5 L19,15.5 C19,15.7761424 18.7761424,16 18.5,16 L0.5,16 C0.223857625,16 3.38176876e-17,15.7761424 0,15.5 L0,4.5 C-3.38176876e-17,4.22385763 0.223857625,4 0.5,4 Z M0.5,0 L18.5,0 C18.7761424,-5.07265313e-17 19,0.223857625 19,0.5 L19,2.5 C19,2.77614237 18.7761424,3 18.5,3 L0.5,3 C0.223857625,3 3.38176876e-17,2.77614237 0,2.5 L0,0.5 C-3.38176876e-17,0.223857625 0.223857625,5.07265313e-17 0.5,0 Z M6.5,6 C6.22385763,6 6,6.22385763 6,6.5 L6,7.5 C6,7.77614237 6.22385763,8 6.5,8 L8.5,8 C8.77614237,8 9,7.77614237 9,7.5 L9,6.5 C9,6.22385763 8.77614237,6 8.5,6 L6.5,6 Z M6.5,9 C6.22385763,9 6,9.22385763 6,9.5 L6,10.5 C6,10.7761424 6.22385763,11 6.5,11 L8.5,11 C8.77614237,11 9,10.7761424 9,10.5 L9,9.5 C9,9.22385763 8.77614237,9 8.5,9 L6.5,9 Z M10.5,9 C10.2238576,9 10,9.22385763 10,9.5 L10,10.5 C10,10.7761424 10.2238576,11 10.5,11 L12.5,11 C12.7761424,11 13,10.7761424 13,10.5 L13,9.5 C13,9.22385763 12.7761424,9 12.5,9 L10.5,9 Z M14.5,6 C14.2238576,6 14,6.22385763 14,6.5 L14,7.5 C14,7.77614237 14.2238576,8 14.5,8 L16.5,8 C16.7761424,8 17,7.77614237 17,7.5 L17,6.5 C17,6.22385763 16.7761424,6 16.5,6 L14.5,6 Z M14.5,9 C14.2238576,9 14,9.22385763 14,9.5 L14,10.5 C14,10.7761424 14.2238576,11 14.5,11 L16.5,11 C16.7761424,11 17,10.7761424 17,10.5 L17,9.5 C17,9.22385763 16.7761424,9 16.5,9 L14.5,9 Z M6.5,12 C6.22385763,12 6,12.2238576 6,12.5 L6,13.5 C6,13.7761424 6.22385763,14 6.5,14 L8.5,14 C8.77614237,14 9,13.7761424 9,13.5 L9,12.5 C9,12.2238576 8.77614237,12 8.5,12 L6.5,12 Z M10.5,12 C10.2238576,12 10,12.2238576 10,12.5 L10,13.5 C10,13.7761424 10.2238576,14 10.5,14 L12.5,14 C12.7761424,14 13,13.7761424 13,13.5 L13,12.5 C13,12.2238576 12.7761424,12 12.5,12 L10.5,12 Z M2.5,9 C2.22385763,9 2,9.22385763 2,9.5 L2,10.5 C2,10.7761424 2.22385763,11 2.5,11 L4.5,11 C4.77614237,11 5,10.7761424 5,10.5 L5,9.5 C5,9.22385763 4.77614237,9 4.5,9 L2.5,9 Z M2.5,12 C2.22385763,12 2,12.2238576 2,12.5 L2,13.5 C2,13.7761424 2.22385763,14 2.5,14 L4.5,14 C4.77614237,14 5,13.7761424 5,13.5 L5,12.5 C5,12.2238576 4.77614237,12 4.5,12 L2.5,12 Z M10.5,6 C10.2238576,6 10,6.22385763 10,6.5 L10,7.5 C10,7.77614237 10.2238576,8 10.5,8 L12.5,8 C12.7761424,8 13,7.77614237 13,7.5 L13,6.5 C13,6.22385763 12.7761424,6 12.5,6 L10.5,6 Z" id="Calendar"></path>
        </g>
    </g>
</svg>