<?xml version="1.0" encoding="UTF-8"?>
<svg width="164px" height="138px" viewBox="0 0 164 138" version="1.1" xmlns="http://www.w3.org/2000/svg" xmlns:xlink="http://www.w3.org/1999/xlink">
    <!-- Generator: Sketch 53.2 (72643) - https://sketchapp.com -->
    <title>calendar </title>
    <desc>Created with Sketch.</desc>
    <g id="Page-1" stroke="none" stroke-width="1" fill="none" fill-rule="evenodd">
        <g id="calendar-" transform="translate(-0.500000, -0.315789)" fill="#5067A2" fill-rule="nonzero">
            <path d="M147.236842,56.3782895 C147.236842,53.9965615 145.304597,52.0657895 142.921053,52.0657895 L125.657895,52.0657895 C123.27435,52.0657895 121.342105,53.9965615 121.342105,56.3782895 L121.342105,65.0032895 C121.342105,67.3850175 123.27435,69.3157895 125.657895,69.3157895 L142.921053,69.3157895 C145.304597,69.3157895 147.236842,67.3850175 147.236842,65.0032895 L147.236842,56.3782895 Z M147.236842,82.2532895 C147.236842,79.8715615 145.304597,77.9407895 142.921053,77.9407895 L125.657895,77.9407895 C123.27435,77.9407895 121.342105,79.8715615 121.342105,82.2532895 L121.342105,90.8782895 C121.342105,93.2600175 123.27435,95.1907895 125.657895,95.1907895 L142.921053,95.1907895 C145.304597,95.1907895 147.236842,93.2600175 147.236842,90.8782895 L147.236842,82.2532895 Z M112.710526,56.3782895 C112.710526,53.9965615 110.778282,52.0657895 108.394737,52.0657895 L91.1315789,52.0657895 C88.7480342,52.0657895 86.8157895,53.9965615 86.8157895,56.3782895 L86.8157895,65.0032895 C86.8157895,67.3850175 88.7480342,69.3157895 91.1315789,69.3157895 L108.394737,69.3157895 C110.778282,69.3157895 112.710526,67.3850175 112.710526,65.0032895 L112.710526,56.3782895 Z M112.710526,82.2532895 C112.710526,79.8715615 110.778282,77.9407895 108.394737,77.9407895 L91.1315789,77.9407895 C88.7480342,77.9407895 86.8157895,79.8715615 86.8157895,82.2532895 L86.8157895,90.8782895 C86.8157895,93.2600175 88.7480342,95.1907895 91.1315789,95.1907895 L108.394737,95.1907895 C110.778282,95.1907895 112.710526,93.2600175 112.710526,90.8782895 L112.710526,82.2532895 Z M112.710526,108.128289 C112.710526,105.746561 110.778282,103.815789 108.394737,103.815789 L91.1315789,103.815789 C88.7480342,103.815789 86.8157895,105.746561 86.8157895,108.128289 L86.8157895,116.753289 C86.8157895,119.135017 88.7480342,121.065789 91.1315789,121.065789 L108.394737,121.065789 C110.778282,121.065789 112.710526,119.135017 112.710526,116.753289 L112.710526,108.128289 Z M78.1842105,56.3782895 C78.1842105,53.9965615 76.2519658,52.0657895 73.8684211,52.0657895 L56.6052632,52.0657895 C54.2217184,52.0657895 52.2894737,53.9965615 52.2894737,56.3782895 L52.2894737,65.0032895 C52.2894737,67.3850175 54.2217184,69.3157895 56.6052632,69.3157895 L73.8684211,69.3157895 C76.2519658,69.3157895 78.1842105,67.3850175 78.1842105,65.0032895 L78.1842105,56.3782895 Z M78.1842105,82.2532895 C78.1842105,79.8715615 76.2519658,77.9407895 73.8684211,77.9407895 L56.6052632,77.9407895 C54.2217184,77.9407895 52.2894737,79.8715615 52.2894737,82.2532895 L52.2894737,90.8782895 C52.2894737,93.2600175 54.2217184,95.1907895 56.6052632,95.1907895 L73.8684211,95.1907895 C76.2519658,95.1907895 78.1842105,93.2600175 78.1842105,90.8782895 L78.1842105,82.2532895 Z M78.1842105,108.128289 C78.1842105,105.746561 76.2519658,103.815789 73.8684211,103.815789 L56.6052632,103.815789 C54.2217184,103.815789 52.2894737,105.746561 52.2894737,108.128289 L52.2894737,116.753289 C52.2894737,119.135017 54.2217184,121.065789 56.6052632,121.065789 L73.8684211,121.065789 C76.2519658,121.065789 78.1842105,119.135017 78.1842105,116.753289 L78.1842105,108.128289 Z M43.6578947,82.2532895 C43.6578947,79.8715615 41.72565,77.9407895 39.3421053,77.9407895 L22.0789474,77.9407895 C19.6954027,77.9407895 17.7631579,79.8715615 17.7631579,82.2532895 L17.7631579,90.8782895 C17.7631579,93.2600175 19.6954027,95.1907895 22.0789474,95.1907895 L39.3421053,95.1907895 C41.72565,95.1907895 43.6578947,93.2600175 43.6578947,90.8782895 L43.6578947,82.2532895 Z M43.6578947,108.128289 C43.6578947,105.746561 41.72565,103.815789 39.3421053,103.815789 L22.0789474,103.815789 C19.6954027,103.815789 17.7631579,105.746561 17.7631579,108.128289 L17.7631579,116.753289 C17.7631579,119.135017 19.6954027,121.065789 22.0789474,121.065789 L39.3421053,121.065789 C41.72565,121.065789 43.6578947,119.135017 43.6578947,116.753289 L43.6578947,108.128289 Z M164.5,39.1282895 L164.5,134.003289 C164.5,136.385017 162.567755,138.315789 160.184211,138.315789 L4.81578947,138.315789 C2.43224476,138.315789 0.5,136.385017 0.5,134.003289 L0.5,39.1282895 C0.5,36.7465615 2.43224476,34.8157895 4.81578947,34.8157895 L160.184211,34.8157895 C162.567755,34.8157895 164.5,36.7465615 164.5,39.1282895 Z M164.5,4.62828947 L164.5,21.8782895 C164.5,24.2600175 162.567755,26.1907895 160.184211,26.1907895 L4.81578947,26.1907895 C2.43224476,26.1907895 0.5,24.2600175 0.5,21.8782895 L0.5,4.62828947 C0.5,2.24656149 2.43224476,0.315789474 4.81578947,0.315789474 L160.184211,0.315789474 C162.567755,0.315789474 164.5,2.24656149 164.5,4.62828947 Z" id="Shape"></path>
        </g>
    </g>
</svg>