<?xml version="1.0" encoding="UTF-8"?>
<svg width="175px" height="138px" viewBox="0 0 175 138" version="1.1" xmlns="http://www.w3.org/2000/svg" xmlns:xlink="http://www.w3.org/1999/xlink">
    <!-- Generator: Sketch 53.2 (72643) - https://sketchapp.com -->
    <title>Candlestick (1)</title>
    <desc>Created with Sketch.</desc>
    <g id="Page-1" stroke="none" stroke-width="1" fill="none" fill-rule="evenodd">
        <g id="Candlestick-(1)" fill="#5067A2" fill-rule="nonzero">
            <path d="M121.508001,34.0222403 L116.647681,33.0222403 L116.647681,4.86032 C116.647681,2.17603934 114.471642,-7.11961547e-08 111.787361,-7.11961549e-08 C109.10308,-7.1196155e-08 106.927041,2.17603934 106.927041,4.86032 L106.927041,33.0222403 L102.066721,33.0222403 C100.777684,33.0222403 99.5414424,33.5343082 98.6299556,34.4457951 C97.7184688,35.3572819 97.2064009,36.5935234 97.2064009,37.8825604 L97.2064009,105.927041 C97.2064009,107.216078 97.7184688,108.452319 98.6299556,109.363806 C99.5414424,110.275293 100.777684,110.787361 102.066721,110.787361 L106.927041,110.787361 L106.927041,125.572455 C106.927041,128.256735 109.10308,130.432775 111.787361,130.432775 C114.471642,130.432775 116.647681,128.256735 116.647681,125.572455 L116.647681,110.787361 L121.508001,110.787361 C122.797038,110.787361 124.03328,110.275293 124.944766,109.363806 C125.856253,108.452319 126.368321,107.216078 126.368321,105.927041 L126.368321,37.8825604 C126.368321,36.5935233 125.856253,35.3572819 124.944766,34.445795 C124.03328,33.5343082 122.797038,33.0222402 121.508001,33.0222403 L121.508001,34.0222403 Z M170.111202,41.6032004 L165.250881,41.6032004 L165.250881,27.0222403 C165.250881,24.3379598 163.074842,22.1619207 160.390561,22.1619207 C157.706281,22.1619207 155.530242,24.3379598 155.530241,27.0222403 L155.530241,41.6032004 L150.669921,41.6032004 C149.380884,41.6032004 148.144643,42.1152684 147.233156,43.0267552 C146.321669,43.938242 145.809601,45.1744835 145.809601,46.4635205 L145.809601,75.6254408 C145.809601,78.3097214 147.985641,80.4857608 150.669921,80.4857608 L155.530241,80.4857608 L155.530241,104.729037 C155.530241,107.413318 157.706281,109.589357 160.390561,109.589357 C163.074842,109.589357 165.250881,107.413318 165.250881,104.729037 L165.250881,80.4857608 L170.111202,80.4857608 C172.795482,80.4857608 174.971522,78.3097214 174.971522,75.6254408 L174.971522,46.4635205 C174.971522,45.1744835 174.459454,43.938242 173.547967,43.0267552 C172.63648,42.1152684 171.400239,41.6032004 170.111202,41.6032004 L170.111202,41.6032004 Z M72.9048007,84.3460808 L68.0444807,84.3460808 L68.0444807,55.1841605 C68.0444805,52.4998799 65.8684412,50.3238407 63.1841606,50.3238407 C60.49988,50.3238407 58.3238406,52.4998799 58.3238405,55.1841605 L58.3238405,84.3460808 L53.4635205,84.3460808 C52.1744835,84.3460807 50.938242,84.8581487 50.0267552,85.7696355 C49.1152683,86.6811224 48.6032003,87.9173639 48.6032004,89.2064009 L48.6032004,118.368321 C48.6032004,119.657358 49.1152684,120.8936 50.0267552,121.805086 C50.938242,122.716573 52.1744835,123.228641 53.4635205,123.228641 L58.3238405,123.228641 L58.3238405,132.949281 C58.3238406,135.633562 60.49988,137.809601 63.1841606,137.809601 C65.8684412,137.809601 68.0444805,135.633562 68.0444807,132.949281 L68.0444807,123.228641 L72.9048007,123.228641 C75.5890813,123.228641 77.7651206,121.052602 77.7651206,118.368321 L77.7651206,89.2064009 C77.7651207,87.9173639 77.2530527,86.6811224 76.3415659,85.7696356 C75.4300791,84.8581488 74.1938377,84.3460808 72.9048007,84.3460808 Z M29.1619203,41.6032004 L29.1619203,90.2064009 C29.1619203,92.8906815 26.9858809,95.0667209 24.3016003,95.0667209 L19.4412801,95.0667209 L19.4412801,119.572455 C19.4412801,122.256735 17.2652407,124.432775 14.5809601,124.432775 C11.8966795,124.432775 9.72064013,122.256735 9.72064013,119.572455 L9.72064013,95.0667209 L4.86032,95.0667209 C2.17603938,95.0667209 3.28729566e-16,92.8906815 0,90.2064009 L0,41.6032004 C-3.28729566e-16,38.9189198 2.17603938,36.7428804 4.86032,36.7428804 L9.72064013,36.7428804 L9.72064013,12.4412801 C9.72064013,9.75699951 11.8966795,7.58096013 14.5809601,7.58096013 C17.2652407,7.58096013 19.4412801,9.75699951 19.4412801,12.4412801 L19.4412801,36.7428804 L24.3016003,36.7428804 C26.9858809,36.7428804 29.1619203,38.9189198 29.1619203,41.6032004 Z" id="Shape"></path>
        </g>
    </g>
</svg>