<?xml version="1.0" standalone="no"?><!DOCTYPE svg PUBLIC "-//W3C//DTD SVG 1.1//EN" "http://www.w3.org/Graphics/SVG/1.1/DTD/svg11.dtd"><svg t="1628253218208" class="icon" viewBox="0 0 1024 1024" version="1.1" xmlns="http://www.w3.org/2000/svg" p-id="4588" xmlns:xlink="http://www.w3.org/1999/xlink" width="16" height="16"><defs><style type="text/css"></style></defs><path d="M968.8 367.2l-0.342857-1.714286c-0.228571-1.142857-0.342857-2.171429-0.685714-3.314285-0.228571-0.685714-0.457143-1.257143-0.571429-1.942858-0.342857-0.914286-0.571429-1.942857-1.028571-2.857142-0.228571-0.685714-0.571429-1.257143-0.914286-1.942858-0.457143-0.914286-0.914286-1.714286-1.371429-2.628571-0.342857-0.571429-0.685714-1.257143-1.142857-1.828571-0.914286-1.371429-1.942857-2.742857-2.971428-4.114286-0.571429-0.685714-1.257143-1.485714-1.942858-2.171429-0.457143-0.571429-1.028571-1.028571-1.6-1.485714-0.685714-0.685714-1.485714-1.257143-2.171428-1.828571-0.571429-0.457143-1.142857-0.914286-1.828572-1.371429-0.228571-0.114286-0.457143-0.342857-0.685714-0.457143L533.828571 61.485714a39.2 39.2 0 0 0-43.542857 0L72.342857 339.771429c-0.228571 0.114286-0.457143 0.342857-0.685714 0.457142-0.571429 0.457143-1.142857 0.914286-1.828572 1.371429-0.8 0.571429-1.485714 1.257143-2.171428 1.828571-0.571429 0.457143-1.028571 1.028571-1.6 1.485715-0.685714 0.685714-1.371429 1.371429-1.942857 2.171428-1.142857 1.257143-2.057143 2.628571-2.971429 4.114286-0.342857 0.571429-0.8 1.142857-1.142857 1.828571-0.457143 0.8-0.914286 1.714286-1.371429 2.628572-0.342857 0.571429-0.571429 1.257143-0.914285 1.942857-0.342857 0.914286-0.685714 1.942857-1.028572 2.857143-0.228571 0.685714-0.457143 1.257143-0.571428 1.942857-0.228571 1.028571-0.457143 2.171429-0.685715 3.314286l-0.342857 1.714285c-0.228571 1.714286-0.342857 3.428571-0.342857 5.142858v278.285714c0 1.714286 0.114286 3.428571 0.342857 5.142857l0.342857 1.714286 0.685715 3.314285c0.228571 0.685714 0.342857 1.257143 0.571428 1.942858 0.342857 1.028571 0.685714 1.942857 1.028572 2.857142 0.228571 0.685714 0.571429 1.257143 0.914285 1.942858 0.457143 0.914286 0.8 1.714286 1.371429 2.628571 0.342857 0.571429 0.685714 1.257143 1.142857 1.828571 0.571429 0.8 1.028571 1.6 1.714286 2.4l1.371428 1.714286c0.571429 0.685714 1.257143 1.485714 1.942858 2.171429 0.457143 0.571429 1.028571 1.028571 1.6 1.485714 0.685714 0.685714 1.485714 1.257143 2.171428 1.828571 0.571429 0.457143 1.142857 0.914286 1.828572 1.371429 0.228571 0.114286 0.457143 0.342857 0.685714 0.457143L490.285714 961.942857c6.4 4.342857 14.057143 6.628571 21.828572 6.628572 7.542857 0 15.2-2.171429 21.828571-6.628572l417.828572-278.285714c0.228571-0.114286 0.457143-0.342857 0.685714-0.457143 0.571429-0.457143 1.142857-0.914286 1.828571-1.371429 0.8-0.571429 1.485714-1.257143 2.171429-1.828571 0.571429-0.457143 1.028571-1.028571 1.6-1.485714 0.685714-0.685714 1.371429-1.371429 1.942857-2.171429l1.371429-1.714286 1.714285-2.4c0.342857-0.571429 0.8-1.142857 1.142857-1.828571 0.457143-0.914286 0.914286-1.714286 1.371429-2.628571 0.342857-0.571429 0.571429-1.257143 0.914286-1.942858 0.342857-0.914286 0.685714-1.942857 1.028571-2.857142 0.228571-0.571429 0.457143-1.257143 0.571429-1.942858 0.342857-1.028571 0.457143-2.171429 0.685714-3.314285l0.342857-1.714286c0.228571-1.714286 0.342857-3.428571 0.342857-5.142857V372.342857c-0.342857-1.714286-0.457143-3.428571-0.685714-5.142857zM551.314286 167.428571l307.885714 205.028572-137.485714 91.885714-170.285715-113.828571V167.428571z m-78.628572 0v183.085715l-170.285714 113.828571-137.485714-91.885714 307.771428-205.028572zM133.371429 445.828571l98.285714 65.714286-98.285714 65.714286v-131.428572z m339.314285 409.714286L164.914286 650.514286l137.485714-91.885715 170.285714 113.828572v183.085714zM512 604.342857l-138.971429-92.8L512 418.628571l138.971429 92.8L512 604.342857z m39.314286 251.2V672.457143l170.285714-113.828572 137.485714 91.885715-307.771428 205.028571zM890.628571 577.142857l-98.285714-65.714286 98.285714-65.714285v131.428571z" p-id="4589" fill="#8a8a8a"></path></svg>