<?xml version="1.0" encoding="UTF-8"?>
<svg width="159px" height="142px" viewBox="0 0 159 142" version="1.1" xmlns="http://www.w3.org/2000/svg" xmlns:xlink="http://www.w3.org/1999/xlink">
    <!-- Generator: Sketch 53.2 (72643) - https://sketchapp.com -->
    <title>custom</title>
    <desc>Created with Sketch.</desc>
    <g id="Page-1" stroke="none" stroke-width="1" fill="none" fill-rule="evenodd">
        <g id="custom" transform="translate(0.000000, -0.825151)" fill="#5067A2" fill-rule="nonzero">
            <path d="M74.8235294,81.2918174 L74.8235294,138.091817 C74.8235294,140.705965 72.7298022,142.825151 70.1470588,142.825151 L4.67647054,142.825151 C2.09372718,142.825151 3.16294839e-16,140.705965 0,138.091817 L0,81.2918174 C-3.63362476e-08,80.0364594 0.492698108,78.8325175 1.36970646,77.9448453 C2.24671482,77.0571731 3.43619342,76.558484 4.67647054,76.558484 L70.1470588,76.558484 C71.387336,76.558484 72.5768146,77.0571731 73.4538229,77.9448453 C74.3308313,78.8325175 74.8235294,80.0364594 74.8235294,81.2918174 Z M74.8235294,5.55848402 L74.8235294,62.358484 C74.8235294,63.6138421 74.3308313,64.817784 73.4538229,65.7054562 C72.5768146,66.5931284 71.387336,67.0918174 70.1470588,67.0918174 L4.67647054,67.0918174 C3.43619342,67.0918174 2.24671482,66.5931284 1.36970646,65.7054562 C0.492698108,64.817784 -3.63362423e-08,63.6138421 0,62.358484 L0,5.55848402 C-2.35506485e-15,4.30312598 0.492698161,3.09918414 1.36970651,2.21151195 C2.24671486,1.32383977 3.43619344,0.825150732 4.67647054,0.825150732 L70.1470588,0.825150732 C72.7298022,0.825150732 74.8235294,2.94433623 74.8235294,5.55848402 Z M159,10.2918174 L159,57.6251507 C159,62.8534463 154.812546,67.0918174 149.647059,67.0918174 L93.5294118,67.0918174 C88.363925,67.0918174 84.1764706,62.8534464 84.1764706,57.6251507 L84.1764706,10.2918174 C84.1764706,5.06352179 88.363925,0.825150732 93.5294118,0.825150732 L149.647059,0.825150732 C154.812546,0.825150809 159,5.06352184 159,10.2918174 Z M154.323529,76.558484 C155.563807,76.558484 156.753285,77.0571731 157.630294,77.9448453 C158.507302,78.8325175 159,80.0364594 159,81.2918174 L159,138.091817 C159,140.705965 156.906273,142.825151 154.323529,142.825151 L88.8529412,142.825151 C86.2701978,142.825151 84.1764706,140.705965 84.1764706,138.091817 L84.1764706,81.2918174 C84.1764706,80.0364594 84.6691687,78.8325175 85.5461771,77.9448453 C86.4231854,77.0571731 87.612664,76.558484 88.8529412,76.558484 L154.323529,76.558484 L154.323529,76.558484 Z M93.5294118,133.358484 L149.647059,133.358484 L149.647059,86.0251507 L93.5294118,86.0251507 L93.5294118,133.358484 L93.5294118,133.358484 Z" id="Shape"></path>
        </g>
    </g>
</svg>