<?xml version="1.0" encoding="UTF-8"?>
<svg width="17px" height="15px" viewBox="0 0 17 15" version="1.1" xmlns="http://www.w3.org/2000/svg" xmlns:xlink="http://www.w3.org/1999/xlink">
    <!-- Generator: Sketch 53.2 (72643) - https://sketchapp.com -->
    <title>Custom</title>
    <desc>Created with Sketch.</desc>
    <g id="Page-1" stroke="none" stroke-width="1" fill="none" fill-rule="evenodd">
        <g id="Custom" fill="#5470C6">
            <path d="M9.5,8 L16.5,8 C16.7761424,8 17,8.22385763 17,8.5 L17,14.5 C17,14.7761424 16.7761424,15 16.5,15 L9.5,15 C9.22385763,15 9,14.7761424 9,14.5 L9,8.5 C9,8.22385763 9.22385763,8 9.5,8 Z M10,9 L10,14 L16,14 L16,9 L10,9 Z" id="Combined-Shape"></path>
            <rect id="Rectangle" x="9" y="0" width="8" height="7" rx="1"></rect>
            <rect id="Rectangle" x="0" y="0" width="8" height="7" rx="0.5"></rect>
            <rect id="Rectangle" x="0" y="8" width="8" height="7" rx="0.5"></rect>
        </g>
    </g>
</svg>