<?xml version="1.0" encoding="UTF-8"?>
<svg width="175px" height="83px" viewBox="0 0 175 83" version="1.1" xmlns="http://www.w3.org/2000/svg" xmlns:xlink="http://www.w3.org/1999/xlink">
    <!-- Generator: Sketch 53.2 (72643) - https://sketchapp.com -->
    <title>dataZoom</title>
    <desc>Created with Sketch.</desc>
    <g id="Page-1" stroke="none" stroke-width="1" fill="none" fill-rule="evenodd">
        <g id="dataZoom" fill="#5067A2" fill-rule="nonzero">
            <path d="M9.20037003,18.4191593 L9.20957963,13.8143694 L9.20957963,18.4191593 L41.4431082,18.4191593 L41.4431082,64.4670572 L9.20957963,64.4670572 L9.20957963,18.4191593 L9.20037003,18.4191593 Z M133.538904,64.4670572 L133.538904,18.4191593 L165.772433,18.4191593 L165.772433,64.4670572 L133.538904,64.4670572 L133.538904,64.4670572 Z M165.772433,9.20957963 L133.538904,9.20957963 L133.538904,4.60478981 C133.538904,2.06163473 131.47727,2.74466854e-07 128.934115,2.74466854e-07 C126.390959,2.74466855e-07 124.329325,2.06163473 124.329325,4.60478981 L124.329325,9.20957963 L50.6526879,9.20957963 L50.6526879,4.60478981 C50.6526879,2.06163462 48.5910532,-6.1602121e-15 46.047898,-6.31593544e-15 C43.5047429,-6.47165878e-15 41.4431082,2.06163462 41.4431082,4.60478981 L41.4431082,9.20957963 L9.20957963,9.20957963 C4.13510123,9.20957963 0,13.3446809 0,18.4191593 L0,64.4670572 C0,69.5507451 4.13510123,73.6766368 9.20957963,73.6766368 L41.4431082,73.6766368 L41.4431082,78.2814267 C41.4431082,80.8245818 43.5047429,82.8862165 46.047898,82.8862165 C48.5910532,82.8862165 50.6526879,80.8245818 50.6526879,78.2814267 L50.6526879,73.6766368 L124.329325,73.6766368 L124.329325,78.2814267 C124.329325,80.8245818 126.390959,82.8862165 128.934115,82.8862165 C131.47727,82.8862165 133.538904,80.8245818 133.538904,78.2814267 L133.538904,73.6766368 L165.772433,73.6766368 C170.858743,73.6766368 174.982013,69.5533676 174.982013,64.4670572 L174.982013,18.4191593 C174.982013,13.3446809 170.856121,9.20957963 165.772433,9.20957963 Z" id="Shape"></path>
        </g>
    </g>
</svg>