<?xml version="1.0" encoding="UTF-8"?>
<svg width="145px" height="157px" viewBox="0 0 145 157" version="1.1" xmlns="http://www.w3.org/2000/svg" xmlns:xlink="http://www.w3.org/1999/xlink">
    <!-- Generator: Sketch 53.2 (72643) - https://sketchapp.com -->
    <title>dataset</title>
    <desc>Created with Sketch.</desc>
    <g id="Page-1" stroke="none" stroke-width="1" fill="none" fill-rule="evenodd">
        <g id="dataset" fill="#5067A2" fill-rule="nonzero">
            <path d="M77,133.051622 C77,135.720999 74.7614237,137.884956 72,137.884956 C69.2385763,137.884956 67,135.720999 67,133.051622 L67,92.7182891 C67,90.0489128 69.2385763,87.8849558 72,87.8849558 C74.7614237,87.8849558 77,90.0489128 77,92.7182891 L77,133.051622 Z M87,92.7182888 C87.0000002,90.0489126 89.2385764,87.8849558 92,87.8849558 C94.7614236,87.8849558 96.9999998,90.0489126 97,92.7182888 L97,133.051623 C96.9999998,135.720999 94.7614236,137.884956 92,137.884956 C89.2385764,137.884956 87.0000002,135.720999 87,133.051623 L87,92.7182888 Z M58,133.072456 C58,135.730326 55.7614237,137.884956 53,137.884956 C50.2385763,137.884956 48,135.730326 48,133.072456 L48,73.6974557 C48,71.0395854 50.2385763,68.8849558 53,68.8849558 C55.7614237,68.8849558 58,71.0395854 58,73.6974557 L58,133.072456 Z M39,133.066774 C38.9999999,135.727782 36.7614237,137.884956 34,137.884956 C31.2385763,137.884956 29.0000001,135.727782 29,133.066774 L29,44.7031376 C29,42.0421293 31.2385763,39.8849558 34,39.8849558 C36.7614237,39.8849558 39,42.0421293 39,44.7031376 L39,133.066774 Z M126.3,132.884956 L126.3,63.9913737 C126.403893,62.6917747 125.897136,61.4145164 124.9129,60.4952543 L83.0962,21.7192841 C82.9895,21.6282393 82.8537001,21.5918214 82.7469999,21.5098811 C81.8447692,20.5509026 80.5501183,19.997952 79.1870999,19.9894333 L39,19.9894333 L39,10.8849558 L135.9903,10.8849558 L136,132.884956 L126.3,132.884956 Z M116,146.884956 L10,146.884956 L10,28.8849558 L74.0143636,28.8849558 L74.0143636,58.8841865 C74.0143636,63.8855711 78.3314545,67.9611095 83.6507272,67.9611097 L116,67.9611097 L116,146.884956 Z M144.990333,10.0614263 C144.990333,5.00519104 140.659667,0.884955752 135.323667,0.884955752 L38.6666667,0.884955752 C33.3403334,0.884955752 29.0000001,5.00519104 28.9999999,10.0614263 L28.9999999,19.2378969 L9.66666665,19.2378969 C4.34033332,19.2378969 0,23.3581322 0,28.4143675 L0,147.708485 C0,152.773897 4.34033332,156.884956 9.66666665,156.884956 L116,156.884956 C121.338753,156.884956 125.666667,152.77651 125.666667,147.708485 L125.666667,142.202603 L135.333333,142.202603 C140.672086,142.202603 145,138.094157 145,133.026132 L144.990333,10.0614263 Z" id="Shape"></path>
        </g>
    </g>
</svg>