<?xml version="1.0" encoding="UTF-8"?>
<svg width="19px" height="17px" viewBox="0 0 19 17" version="1.1" xmlns="http://www.w3.org/2000/svg" xmlns:xlink="http://www.w3.org/1999/xlink">
    <!-- Generator: Sketch 53.2 (72643) - https://sketchapp.com -->
    <title>Drag</title>
    <desc>Created with Sketch.</desc>
    <g id="Page-1" stroke="none" stroke-width="1" fill="none" fill-rule="evenodd">
        <g id="Drag" transform="translate(1.000000, 1.000000)" stroke="#5470C6">
            <g id="Group-22" transform="translate(0.000000, 5.000000)">
                <path d="M0,2.5 L17,2.5" id="Path-126"></path>
                <path d="M13,4 L15.0603481,1.46567365 C15.2345429,1.25140568 15.5494543,1.21892 15.7637223,1.39311485 C15.7872182,1.41221648 15.8089303,1.43341303 15.8285909,1.45644321 L18,4" id="Path-175" stroke-linecap="round" stroke-linejoin="round" transform="translate(15.500000, 2.500000) rotate(90.000000) translate(-15.500000, -2.500000) "></path>
                <path d="M-1,4 L1.06034809,1.46567365 C1.23454294,1.25140568 1.54945429,1.21892 1.76372226,1.39311485 C1.78721817,1.41221648 1.80893027,1.43341303 1.82859091,1.45644321 L4,4" id="Path-175" stroke-linecap="round" stroke-linejoin="round" transform="translate(1.500000, 2.500000) scale(-1, 1) rotate(90.000000) translate(-1.500000, -2.500000) "></path>
            </g>
            <g id="Group-46" transform="translate(6.000000, 0.000000)">
                <path d="M0,2.14285714 L2.11686218,0.282970449 C2.30217665,0.120152143 2.57854397,0.116815637 2.76773517,0.27511264 L5,2.14285714" id="Path-175" stroke-linecap="round" stroke-linejoin="round"></path>
                <path d="M0,15.1428571 L2.11686218,13.2829704 C2.30217665,13.1201521 2.57854397,13.1168156 2.76773517,13.2751126 L5,15.1428571" id="Path-175" stroke-linecap="round" stroke-linejoin="round" transform="translate(2.500000, 14.071429) scale(1, -1) translate(-2.500000, -14.071429) "></path>
                <path d="M2.5,0.142857143 L2.5,15" id="Path-126"></path>
            </g>
        </g>
    </g>
</svg>