<?xml version="1.0" encoding="UTF-8"?>
<svg width="175px" height="159px" viewBox="0 0 175 159" version="1.1" xmlns="http://www.w3.org/2000/svg" xmlns:xlink="http://www.w3.org/1999/xlink">
    <!-- Generator: Sketch 53.2 (72643) - https://sketchapp.com -->
    <title>drag</title>
    <desc>Created with Sketch.</desc>
    <g id="Page-1" stroke="none" stroke-width="1" fill="none" fill-rule="evenodd">
        <g id="drag" transform="translate(0.000000, 0.000000)" fill="#5067A2" fill-rule="nonzero">
            <path d="M174.799112,77.2243509 C175.141784,80.4933122 173.860538,83.7226514 171.369927,85.8675022 L145.821493,107.665891 C143.704571,109.29545 140.681703,108.978807 138.948417,106.945941 C137.215132,104.913075 137.380357,101.878162 139.32409,100.045479 L158.345038,83.8019696 L92.4385031,83.8019696 L92.4385031,144.173679 L109.273597,130.085944 C111.397298,128.30558 114.562167,128.583909 116.342532,130.70761 C118.122896,132.83131 117.844567,135.99618 115.720867,137.776544 L93.3308935,156.516741 C89.5429956,159.697467 83.9995074,159.633553 80.2859517,156.366338 L59.0490671,137.706356 C57.140269,135.840194 57.0244102,132.80703 58.7852891,130.800695 C60.546168,128.79436 63.5687212,128.515654 65.6667932,130.166159 L82.4116455,144.885586 L82.4116455,83.8019696 L16.5051101,83.8019696 L35.5360859,100.045479 C36.9700273,101.186546 37.6671397,103.019075 37.3541473,104.824694 C37.041155,106.630312 35.7679333,108.121296 34.0335988,108.713163 C32.2992644,109.305031 30.380183,108.903467 29.0286553,107.665891 L3.52032945,85.8975828 C1.25557692,83.9644222 -0.0328273042,81.1246883 0.00397844461,78.147297 C0.0407841935,75.1699056 1.39899211,72.3628885 3.71083975,70.4863026 L29.118897,49.820949 C31.2816477,48.328475 34.2285594,48.7508003 35.8850928,50.7906204 C37.5416262,52.8304405 37.3503183,55.8013071 35.4458442,57.6118174 L15.5625855,73.7751119 L82.4116455,73.7751119 L82.4116455,14.1153089 L65.6667932,28.8347359 C64.3276607,30.0598688 62.43094,30.4655542 60.7078175,29.8954003 C58.9846951,29.3252464 57.7042897,27.8683002 57.360198,26.0862151 C57.0161064,24.30413 57.662069,22.4752334 59.0490671,21.3045658 L80.2759248,2.65461056 C83.9853287,-0.629787191 89.5418994,-0.698070701 93.3308935,2.49418084 L115.720867,21.2243509 C117.320514,22.5881211 117.904229,24.8023516 117.184781,26.777481 C116.465334,28.7526104 114.594242,30.0726692 112.492218,30.0880931 C111.314421,30.0896881 110.174126,29.6740664 109.273597,28.9149508 L92.4385031,14.8272158 L92.4385031,73.7751119 L159.29759,73.7751119 L139.414331,57.6118174 C138.022627,56.4816171 137.339593,54.6948034 137.622523,52.9244518 C137.905453,51.1541001 139.111362,49.669169 140.785997,49.0290176 C142.460631,48.3888662 144.349574,48.6907487 145.741278,49.820949 L171.149336,70.4863026 C173.218763,72.1532673 174.533435,74.5803549 174.799112,77.2243509" id="Path"></path>
        </g>
    </g>
</svg>