<?xml version="1.0" encoding="UTF-8"?>
<svg width="20px" height="15px" viewBox="0 0 20 15" version="1.1" xmlns="http://www.w3.org/2000/svg" xmlns:xlink="http://www.w3.org/1999/xlink">
    <!-- Generator: Sketch 53.2 (72643) - https://sketchapp.com -->
    <title>Funnel </title>
    <desc>Created with Sketch.</desc>
    <g id="Page-1" stroke="none" stroke-width="1" fill="none" fill-rule="evenodd">
        <g id="Funnel-" fill="#5470C6">
            <path d="M0.833333333,0 L19.1666667,0 C19.442809,-4.58523882e-16 19.6666667,0.223857625 19.6666667,0.5 C19.6666667,0.582070417 19.6464645,0.662879044 19.6078431,0.735294118 L18.4,3 L1.6,3 L0.392156863,0.735294118 C0.26220751,0.491639081 0.354384179,0.188772882 0.598039216,0.0588235294 C0.67045429,0.0202021567 0.751262916,7.92232208e-16 0.833333333,7.77156117e-16 Z M2.13333333,4 L17.8666667,4 L16.2666667,7 L3.73333333,7 L2.13333333,4 Z M4.26666667,8 L15.7333333,8 L14.1333333,11 L5.86666667,11 L4.26666667,8 Z M6.4,12 L13.6,12 L12.1960353,14.6324339 C12.1192783,14.7763532 12.0830403,14.8233945 12.0345271,14.8691461 C11.9860139,14.9148978 11.9314915,14.9476112 11.8682927,14.9688868 C11.8050938,14.9901624 11.7465336,15 11.5834251,15 L8.41657493,15 C8.25346636,15 8.19490615,14.9901624 8.13170734,14.9688868 C8.06850852,14.9476112 8.01398608,14.9148978 7.96547291,14.8691461 C7.91695974,14.8233945 7.88072171,14.7763532 7.80396474,14.6324339 L6.4,12 Z" id="Funnel"></path>
        </g>
    </g>
</svg>