<?xml version="1.0" encoding="UTF-8"?>
<svg width="175px" height="137px" viewBox="0 0 175 137" version="1.1" xmlns="http://www.w3.org/2000/svg" xmlns:xlink="http://www.w3.org/1999/xlink">
    <!-- Generator: Sketch 53.2 (72643) - https://sketchapp.com -->
    <title>funnel </title>
    <desc>Created with Sketch.</desc>
    <g id="Page-1" stroke="none" stroke-width="1" fill="none" fill-rule="evenodd">
        <g id="funnel-" fill="#5067A2" fill-rule="nonzero">
            <path d="M116.331467,108.325366 L60.5285591,108.325366 C58.9291301,108.325102 57.4459378,109.160985 56.6178211,110.52934 C55.7897045,111.897695 55.7371711,113.5994 56.4793063,115.016231 L66.3876358,133.863994 C67.1750739,135.367321 68.7306799,136.310539 70.4277481,136.313655 L106.432278,136.313655 C108.129346,136.310539 109.684952,135.367321 110.47239,133.863994 L120.380719,115.016231 C121.122854,113.5994 121.070321,111.897695 120.242204,110.52934 C119.414088,109.160985 117.930896,108.325102 116.331467,108.325366 L116.331467,108.325366 Z M134.968998,71.0137414 L41.9001683,71.0137414 C40.2925309,71.0025161 38.7981975,71.8401445 37.9688482,73.2173896 C37.139499,74.5946346 37.098146,76.3072185 37.8600561,77.722887 L47.8415098,96.5706503 C48.6348072,98.0648166 50.1899261,98.9971843 51.881622,98.9928896 L125.024106,98.9928896 C126.716211,98.9981743 128.270437,98.0607046 129.055078,96.5615098 L139.00911,77.7137465 C139.754942,76.2976526 139.705659,74.5945859 138.879188,73.2239903 C138.052717,71.8533948 136.569493,71.014997 134.968998,71.0137414 L134.968998,71.0137414 Z M153.63395,35.5759245 L23.2352156,35.5759245 C21.6347203,35.5771801 20.151496,36.4155778 19.325025,37.7861734 C18.498554,39.156769 18.4492717,40.8598357 19.1951033,42.2759296 L29.1491354,61.1145524 C29.9359394,62.6172637 31.4930184,63.5578521 33.1892477,63.5550727 L143.70734,63.5550727 C145.402425,63.5537423 146.957543,62.6143387 147.747452,61.1145524 L157.674063,42.266789 C158.415446,40.8514003 158.363824,39.1515952 157.537917,37.7838041 C156.712011,36.4160129 155.231751,35.5788553 153.63395,35.5759245 L153.63395,35.5759245 Z M174.995358,4.69922974 C174.994253,5.44166711 174.81229,6.17265769 174.465208,6.82897225 L164.538597,25.6767355 C163.746223,27.1729824 162.191592,28.108575 160.498485,28.1081153 L14.4968732,28.1081153 C12.8031994,28.1106197 11.2475937,27.1744407 10.4567611,25.6767355 L0.530150516,6.82897225 C-0.215681017,5.41287837 -0.166398756,3.70981169 0.660072225,2.33921611 C1.48654321,0.96862053 2.96976742,0.130222778 4.57026264,0.1289671 L170.425096,0.1289671 C172.949182,0.1289671 174.995358,2.17514338 174.995358,4.69922974 L174.995358,4.69922974 Z" id="Shape"></path>
        </g>
    </g>
</svg>