<?xml version="1.0" encoding="UTF-8"?>
<svg width="175px" height="100px" viewBox="0 0 175 100" version="1.1" xmlns="http://www.w3.org/2000/svg" xmlns:xlink="http://www.w3.org/1999/xlink">
    <!-- Generator: Sketch 53.2 (72643) - https://sketchapp.com -->
    <title>gange</title>
    <desc>Created with Sketch.</desc>
    <g id="Page-1" stroke="none" stroke-width="1" fill="none" fill-rule="evenodd">
        <g id="gange" fill="#5067A2" fill-rule="nonzero">
            <path d="M143.698895,82.9089367 C142.437361,67.6655629 135.026556,53.5920156 123.171797,43.9267897 L135.7146,25.9137777 C153.409366,39.7333892 164.305583,60.4959162 165.625777,82.9089367 L143.698895,82.9089367 L143.698895,82.9089367 Z M115.601912,38.6960173 C112.342946,36.8541942 108.909619,35.339582 105.352176,34.174346 L107.654453,22.8655635 C107.981818,21.2534161 107.424245,19.5890834 106.191766,18.4995036 C104.959288,17.4099237 103.239147,17.0606298 101.679304,17.5831975 C100.119461,18.1057651 98.9568933,19.4208039 98.6295287,21.0329513 L96.4193432,31.8996968 C93.4676767,31.3974455 90.4804994,31.132603 87.4865101,31.1077136 C77.1817177,31.1042083 67.0761605,33.9468942 58.284434,39.3222365 L45.5021944,21.4934066 C70.6181595,5.43266895 102.701308,5.12868193 128.117087,20.7106326 L115.601912,38.6960173 L115.601912,38.6960173 Z M31.2649159,82.9089367 L9.34724295,82.9089367 C10.6455448,61.0475255 21.0636813,40.7358347 38.0612364,26.9267794 L50.843476,44.7464001 C39.5322634,54.3814577 32.493597,68.101229 31.2649159,82.9089367 L31.2649159,82.9089367 Z M87.4865101,0.0269797767 C39.2492112,0.0269797767 0,39.276191 0,87.5134899 C5.46353103e-08,90.0565144 2.06152873,92.118043 4.60455321,92.118043 L35.685287,92.118043 C38.2283115,92.118043 40.2898401,90.0565144 40.2898401,87.5134899 C40.315223,61.4580101 61.4310302,40.3422029 87.4865101,40.31682 C89.908505,40.31682 92.2384089,40.6759751 94.5683128,41.0351302 L86.9247546,78.6451205 C82.0531374,79.4923583 78.2774037,83.5443651 78.2774037,88.6646282 C78.2774037,94.3864333 82.9158433,99.0248728 88.6376484,99.0248728 C94.3594535,99.0248728 98.997893,94.3864333 98.997893,88.6646282 C98.997893,85.7361324 97.7546637,83.102328 95.793124,81.2236703 L103.501146,43.3005704 C121.633876,49.8942906 134.68318,67.1337376 134.68318,87.5134899 C134.68318,90.0565144 136.744709,92.118043 139.287733,92.118043 L170.368467,92.118043 C172.911491,92.118043 174.97302,90.0565144 174.97302,87.5134899 C174.97302,39.276191 135.723809,0.0269798756 87.4865101,0.0269797767 L87.4865101,0.0269797767 Z" id="Shape"></path>
        </g>
    </g>
</svg>