<?xml version="1.0" encoding="UTF-8"?>
<svg width="20px" height="16px" viewBox="0 0 20 16" version="1.1" xmlns="http://www.w3.org/2000/svg" xmlns:xlink="http://www.w3.org/1999/xlink">
    <!-- Generator: Sketch 53.2 (72643) - https://sketchapp.com -->
    <title>Map</title>
    <desc>Created with Sketch.</desc>
    <g id="Page-1" stroke="none" stroke-width="1" fill="none" fill-rule="evenodd">
        <g id="Map" transform="translate(1.000000, 0.000000)">
            <path d="M11.9990601,4.02788913e-13 C13.6599457,4.02788913e-13 15.0058512,1.36384385 14.9999809,3.05118409 C14.9999809,3.53180282 14.7930253,4.1129098 14.4150177,4.78648166 C14.2136966,5.15116648 13.9643908,5.53913739 13.6793912,5.93366813 C13.3936317,6.32788525 13.0892129,6.71627432 12.7843747,7.07353686 C12.6815652,7.20167572 12.5848619,7.31747896 12.4910414,7.4136027 C12.4371339,7.47439222 12.4017284,7.51782823 12.3821781,7.53539081 C12.1764281,7.77279921 11.8303142,7.77279921 11.6223103,7.54202904 C11.6044373,7.52376083 11.5668304,7.480168 11.5061354,7.42039775 C11.4218803,7.32330701 11.3231853,7.20875824 11.2145579,7.08022736 C10.9096411,6.72296483 10.6065064,6.33454962 10.32038,5.94090747 C10.0412508,5.54496545 9.79191875,5.15798766 9.58386253,4.79306763 C9.20692933,4.11837197 9,3.53182895 9,3.05118409 C9,1.36386998 10.3394324,4.02788913e-13 11.9990601,4.02788913e-13 Z M12,4.2 C12.6627417,4.2 13.2,3.6627417 13.2,3 C13.2,2.3372583 12.6627417,1.8 12,1.8 C11.3372583,1.8 10.8,2.3372583 10.8,3 C10.8,3.6627417 11.3372583,4.2 12,4.2 Z" id="Combined-Shape" fill="#5470C6" fill-rule="nonzero"></path>
            <polyline id="Path-81" stroke="#5470C6" stroke-linecap="round" stroke-linejoin="round" points="8.12596516 5.15027982 6.13127899 5.92954978 0 2.88622307 0 11.5046487 6.13127899 14.8862231 12 13.3845949 18 14.8862231 18 5.92954978 15.8454702 5.15027982"></polyline>
            <path d="M6,5.98349881 L6,14.5774537" id="Path-82" stroke="#5470C6" stroke-linecap="round" stroke-linejoin="round"></path>
            <path d="M12,9.5 L12,13.1955233" id="Path-83" stroke="#5470C6" stroke-linecap="round" stroke-linejoin="round"></path>
        </g>
    </g>
</svg>