<?xml version="1.0" encoding="UTF-8"?>
<svg width="175px" height="142px" viewBox="0 0 175 142" version="1.1" xmlns="http://www.w3.org/2000/svg" xmlns:xlink="http://www.w3.org/1999/xlink">
    <!-- Generator: Sketch 53.2 (72643) - https://sketchapp.com -->
    <title>geo</title>
    <desc>Created with Sketch.</desc>
    <g id="Page-1" stroke="none" stroke-width="1" fill="none" fill-rule="evenodd">
        <g id="geo" fill="#5067A2" fill-rule="nonzero">
            <path d="M9.20332621,34.019885 L55.2181167,56.861627 L55.2181167,128.571076 L9.20332621,103.207724 L9.20332621,34.019885 Z M171.819596,50.2815119 L151.996424,43.1124076 C149.63126,42.3318353 147.074346,43.5747977 146.227189,45.9169373 C145.380032,48.2590769 146.550177,50.8501245 148.867418,51.7631882 L165.653614,57.8371405 L165.653614,131.138702 L119.638823,119.625801 L119.638823,87.4706656 C119.638823,84.9293389 117.578671,82.8691865 115.037344,82.8691865 C112.496018,82.8691865 110.435865,84.9293389 110.435865,87.4706656 L110.435865,119.644207 L64.4210748,131.41479 L64.4210748,58.2236647 L81.060023,51.7263763 C83.2914479,50.7138845 84.3410975,48.1328302 83.4496557,45.8503474 C82.5582139,43.5678645 80.037126,42.3813901 77.7101463,43.1492194 L61.2460542,49.5820871 L6.64490386,22.4793755 C5.21943693,21.7614379 3.52312776,21.8367966 2.16693957,22.6783095 C0.810751382,23.5198224 -0.00997312356,25.0062796 0.000368118324,26.6023007 L0.000368118324,105.913394 C0.000368118324,107.597535 0.91146097,109.134429 2.38393426,109.944289 L58.8072703,141.059491 C59.8287987,141.620871 61.0435892,141.795727 62.16635,141.49203 L115.046547,127.963681 L169.141535,141.501233 C170.516378,141.840666 171.970958,141.532118 173.089604,140.663763 C174.206625,139.788526 174.858383,138.44767 174.856572,137.028595 L174.856572,54.6069022 C174.855748,52.6695411 173.64154,50.9402146 171.819596,50.2815119 Z M115.037344,16.5986853 C121.13907,16.6012266 126.083435,21.5497125 126.080894,27.651438 C126.078353,33.7531634 121.129867,38.697529 115.028141,38.6949877 C108.926416,38.6924463 103.98205,33.7439604 103.984592,27.642235 C103.987133,21.5405096 108.935619,16.596144 115.037344,16.5986853 L115.037344,16.5986853 Z M99.5763747,54.7173377 C102.208421,58.3341002 105.00612,61.9140509 107.813022,65.199507 C108.806942,66.3866886 109.718035,67.4358258 110.491083,68.3285127 C111.04326,68.8806902 111.402176,69.2856204 111.558626,69.4512736 C112.438859,70.4713636 113.723372,71.0524431 115.07068,71.0400337 C116.417988,71.0276243 117.69158,70.4229833 118.552874,69.3868529 C118.72773,69.2211997 119.06824,68.8254725 119.555997,68.264092 C120.506081,67.2663872 121.406012,66.2220982 122.252463,65.1350863 C125.059366,61.8496302 127.866268,58.2788825 130.498314,54.6437141 C133.121157,51.0177486 135.412694,47.4470008 137.262488,44.0879211 C140.741206,37.8851274 142.646219,32.5382087 142.646219,28.1207888 C142.701436,12.5861956 130.314255,0.0425636812 115.028141,0.0425636812 C99.7604339,0.0425636812 87.42847,12.5861956 87.42847,28.1207888 C87.42847,32.5382087 89.3334823,37.9403451 92.8029975,44.1523418 C94.7172128,47.5114215 97.0087494,51.0729663 99.5763747,54.7173377 Z" id="Shape"></path>
        </g>
    </g>
</svg>