<?xml version="1.0" encoding="UTF-8"?>
<svg width="175px" height="120px" viewBox="0 0 175 120" version="1.1" xmlns="http://www.w3.org/2000/svg" xmlns:xlink="http://www.w3.org/1999/xlink">
    <!-- Generator: Sketch 53.2 (72643) - https://sketchapp.com -->
    <title>gl</title>
    <desc>Created with Sketch.</desc>
    <g id="Page-1" stroke="none" stroke-width="1" fill="none" fill-rule="evenodd">
        <g id="gl" fill="#5067A2">
            <path d="M170.394737,101.315789 L119.736842,101.315789 L119.736842,4.60526316 C119.736842,2.06315789 117.673684,0 115.131579,0 L105.921053,0 C103.378947,0 101.315789,2.06315789 101.315789,4.60526316 L101.315789,115.131579 C101.315789,117.673684 103.378947,119.736842 105.921053,119.736842 L170.394737,119.736842 C172.936842,119.736842 175,117.673684 175,115.131579 L175,105.921053 C175,103.378947 172.936842,101.315789 170.394737,101.315789" id="Fill-1"></path>
            <path d="M78.2894737,0 L4.60526316,0 C2.06315789,0 0,2.06315789 0,4.60526316 L0,115.131579 C0,117.673684 2.06315789,119.736842 4.60526316,119.736842 L78.2894737,119.736842 C80.8315789,119.736842 82.8947368,117.673684 82.8947368,115.131579 L82.8947368,59.8684211 C82.8947368,57.3263158 80.8315789,55.2631579 78.2894737,55.2631579 L41.4473684,55.2631579 C38.9052632,55.2631579 36.8421053,57.3263158 36.8421053,59.8684211 L36.8421053,69.0789474 C36.8421053,71.6210526 38.9052632,73.6842105 41.4473684,73.6842105 L64.4736842,73.6842105 L64.4736842,101.315789 L18.4210526,101.315789 L18.4210526,18.4210526 L64.4736842,18.4210526 L64.4736842,32.2368421 C64.4736842,34.7789474 66.5368421,36.8421053 69.0789474,36.8421053 L78.2894737,36.8421053 C80.8315789,36.8421053 82.8947368,34.7789474 82.8947368,32.2368421 L82.8947368,4.60526316 C82.8947368,2.06315789 80.8315789,0 78.2894737,0" id="Fill-3"></path>
        </g>
    </g>
</svg>