<?xml version="1.0" encoding="UTF-8"?>
<svg width="171px" height="146px" viewBox="0 0 171 146" version="1.1" xmlns="http://www.w3.org/2000/svg" xmlns:xlink="http://www.w3.org/1999/xlink">
    <!-- Generator: Sketch 53.2 (72643) - https://sketchapp.com -->
    <title>graph</title>
    <desc>Created with Sketch.</desc>
    <defs>
        <polygon id="path-1" points="0.06 0 171 0 171 146 0.06 146"></polygon>
    </defs>
    <g id="graph" stroke="none" stroke-width="1" fill="none" fill-rule="evenodd">
        <mask id="mask-2" fill="white">
            <use xlink:href="#path-1"></use>
        </mask>
        <g id="Clip-2"></g>
        <path d="M171,100 C171,106.075 166.075,111 160,111 C154.016,111 149.158,106.219 149.014,100.27 L114.105,83.503 C111.564,86.693 108.179,89.18 104.282,90.616 L108.698,124.651 C112.951,126.172 116,130.225 116,135 C116,141.075 111.075,146 105,146 C98.925,146 94,141.075 94,135 C94,131.233 95.896,127.912 98.781,125.93 L94.364,91.896 C82.94,90.82 74,81.206 74,69.5 C74,69.479 74.001,69.46 74.001,69.439 L53.719,64.759 C50.642,70.269 44.76,74 38,74 C36.07,74 34.215,73.689 32.472,73.127 L20.624,90.679 C21.499,92.256 22,94.068 22,96 C22,102.075 17.075,107 11,107 C4.925,107 0,102.075 0,96 C0,89.925 4.925,85 11,85 C11.452,85 11.895,85.035 12.332,85.089 L24.184,67.531 C21.574,64.407 20,60.389 20,56 C20,48.496 24.594,42.07 31.121,39.368 L29.111,21.279 C24.958,19.707 22,15.704 22,11 C22,4.925 26.925,0 33,0 C39.075,0 44,4.925 44,11 C44,14.838 42.031,18.214 39.051,20.182 L41.061,38.279 C49.223,39.681 55.49,46.564 55.95,55.011 L76.245,59.694 C79.889,52.181 87.589,47 96.5,47 C100.902,47 105.006,48.269 108.475,50.455 L131.538,27.391 C131.192,26.322 131,25.184 131,24 C131,17.925 135.925,13 142,13 C148.075,13 153,17.925 153,24 C153,30.075 148.075,35 142,35 C140.816,35 139.678,34.808 138.609,34.461 L115.546,57.525 C117.73,60.994 119,65.098 119,69.5 C119,71.216 118.802,72.884 118.438,74.49 L153.345,91.257 C155.193,89.847 157.495,89 160,89 C166.075,89 171,93.925 171,100" id="Fill-1" fill="#4F608A" mask="url(#mask-2)"></path>
    </g>
</svg>