<?xml version="1.0" encoding="UTF-8"?>
<svg width="175px" height="159px" viewBox="0 0 462 425" version="1.1" xmlns="http://www.w3.org/2000/svg" xmlns:xlink="http://www.w3.org/1999/xlink">
    <!-- Generator: Sketch 53.2 (72643) - https://sketchapp.com -->
    <title>drag</title>
    <desc>Created with Sketch.</desc>
    <g id="Page-1" stroke="none" stroke-width="1" fill="none" fill-rule="evenodd">
        <g id="drag" transform="translate(0.000000, 0.000000)" fill="#5067A2" fill-rule="nonzero">
            <path d="M79.180 5.682 C 77.353 6.582,74.653 8.899,73.180 10.831 L 70.500 14.343 70.231 88.570 L 69.963 162.796 77.731 159.441 C 82.004 157.596,89.209 155.054,93.742 153.793 L 101.985 151.500 101.992 93.750 L 102.000 36.000 181.990 36.000 L 261.979 36.000 262.240 80.523 L 262.500 125.046 275.500 103.293 C 282.650 91.329,289.756 80.101,291.292 78.341 L 294.084 75.141 293.792 44.741 L 293.500 14.341 290.806 10.811 C 285.266 3.551,292.430 3.997,181.849 4.023 C 91.911 4.043,82.185 4.201,79.180 5.682 M311.115 83.994 C 309.254 84.439,306.274 86.309,304.493 88.151 C 302.713 89.993,287.457 114.549,270.592 142.720 L 239.929 193.941 245.714 201.241 C 248.896 205.256,253.474 211.583,255.887 215.300 L 260.273 222.059 287.051 177.415 C 301.778 152.862,314.206 132.394,314.667 131.933 C 315.129 131.471,336.716 167.185,362.639 211.297 L 409.772 291.500 343.886 291.757 L 278.000 292.014 277.994 297.257 C 277.991 300.141,277.316 306.961,276.494 312.413 C 275.672 317.865,275.000 322.710,275.000 323.180 C 275.000 323.649,312.913 323.913,359.250 323.767 L 443.500 323.500 446.867 321.099 C 450.558 318.466,453.944 312.087,453.978 307.700 C 453.990 306.161,453.269 303.461,452.376 301.700 C 449.195 295.431,328.682 90.466,327.108 88.648 C 323.640 84.642,316.771 82.643,311.115 83.994 M117.500 165.075 C 95.571 168.089,72.901 177.575,55.448 191.040 C 46.990 197.565,33.428 212.273,27.622 221.215 C 12.681 244.229,6.556 264.810,6.556 292.000 C 6.556 327.714,18.637 356.894,43.871 382.129 C 69.106 407.363,98.286 419.444,134.000 419.444 C 169.714 419.444,198.894 407.363,224.129 382.129 C 249.363 356.894,261.444 327.714,261.444 292.000 C 261.444 256.286,249.363 227.106,224.129 201.871 C 205.301 183.044,184.567 171.867,158.500 166.494 C 148.840 164.503,127.131 163.752,117.500 165.075 M152.500 197.894 C 171.472 201.830,187.063 210.053,200.845 223.391 C 233.829 255.313,239.409 306.894,213.983 344.852 C 180.286 395.159,110.583 402.639,67.155 360.609 C 23.308 318.174,30.084 246.222,81.148 212.017 C 101.731 198.230,128.542 192.923,152.500 197.894" id="Path"></path>
        </g>
    </g>
</svg>