<?xml version="1.0" encoding="UTF-8"?>
<svg width="165px" height="137px" viewBox="0 0 165 137" version="1.1" xmlns="http://www.w3.org/2000/svg" xmlns:xlink="http://www.w3.org/1999/xlink">
    <!-- Generator: Sketch 53.2 (72643) - https://sketchapp.com -->
    <title>heatmap</title>
    <desc>Created with Sketch.</desc>
    <g id="Page-1" stroke="none" stroke-width="1" fill="none" fill-rule="evenodd">
        <g id="heatmap" transform="translate(-0.500000, -0.474277)" fill-rule="nonzero">
            <path d="M44.5999999,89.4742765 L5.40000005,89.4742765 C2.6938048,89.4742765 0.500000074,87.2916647 0.5,84.5992766 L0.5,55.3492765 C0.500000074,52.6568883 2.6938048,50.4742765 5.40000005,50.4742765 L44.5999999,50.4742765 C47.3061952,50.4742765 49.4999999,52.6568883 49.5,55.3492765 L49.5,84.5992766 C49.4999999,87.2916647 47.3061952,89.4742765 44.5999999,89.4742765" id="Path" fill="#687DB0"></path>
            <path d="M102.6,89.4742765 L63.3999999,89.4742765 C60.6938047,89.4742765 58.5000001,87.2916647 58.5,84.5992766 L58.5,55.3492765 C58.5000001,52.6568884 60.6938047,50.4742766 63.3999999,50.4742765 L102.6,50.4742765 C105.306195,50.4742765 107.5,52.6568883 107.5,55.3492765 L107.5,84.5992766 C107.5,87.2916647 105.306195,89.4742765 102.6,89.4742765" id="Path" fill="#8497C0"></path>
            <path d="M160.6,89.4742765 L121.4,89.4742765 C118.693805,89.4742765 116.5,87.2916647 116.5,84.5992766 L116.5,55.3492765 C116.5,52.6568884 118.693805,50.4742766 121.4,50.4742765 L160.6,50.4742765 C163.306195,50.4742766 165.5,52.6568884 165.5,55.3492765 L165.5,84.5992766 C165.5,87.2916647 163.306195,89.4742765 160.6,89.4742765" id="Path" fill="#A7B4D1"></path>
            <path d="M44.5999999,137.474277 L5.40000005,137.474277 C2.69380475,137.474277 0.5,135.291665 0.5,132.599276 L0.5,103.349277 C0.5,100.656888 2.69380475,98.4742765 5.40000005,98.4742765 L44.5999999,98.4742765 C45.8995608,98.4742765 47.1458949,98.9878911 48.0648232,99.902131 C48.9837515,100.816371 49.5,102.056346 49.5,103.349277 L49.5,132.599276 C49.5,135.291665 47.3061953,137.474277 44.5999999,137.474277" id="Path" fill="#8497C0"></path>
            <path d="M102.6,137.474277 L63.3999999,137.474277 C60.6938047,137.474276 58.5,135.291665 58.5,132.599276 L58.5,103.349277 C58.5,100.656888 60.6938047,98.4742766 63.3999999,98.4742765 L102.6,98.4742765 C105.306195,98.4742765 107.5,100.656888 107.5,103.349277 L107.5,132.599276 C107.5,135.291665 105.306195,137.474277 102.6,137.474277" id="Path" fill="#A7B4D1"></path>
            <path d="M160.6,137.474277 L121.4,137.474277 C118.693805,137.474276 116.5,135.291665 116.5,132.599276 L116.5,103.349277 C116.5,100.656888 118.693805,98.4742766 121.4,98.4742765 L160.6,98.4742765 C163.306195,98.4742766 165.5,100.656888 165.5,103.349277 L165.5,132.599276 C165.5,135.291665 163.306195,137.474276 160.6,137.474277" id="Path" fill="#CDD5E3"></path>
            <path d="M5.40000005,0.474276527 L44.5999999,0.474276527 C47.3061953,0.474276527 49.5,2.65688839 49.5,5.34927658 L49.5,34.5992765 C49.5,37.2916647 47.3061953,39.4742765 44.5999999,39.4742765 L5.40000005,39.4742765 C2.69380475,39.4742765 0.5,37.2916647 0.5,34.5992765 L0.5,5.34927658 C0.5,2.65688839 2.69380475,0.474276527 5.40000005,0.474276527" id="Path" fill="#5067A2"></path>
            <path d="M102.6,39.4742765 L63.3999999,39.4742765 C60.6938047,39.4742765 58.5,37.2916646 58.5,34.5992765 L58.5,5.34927658 C58.5,2.65688845 60.6938047,0.474276601 63.3999999,0.474276527 L102.6,0.474276527 C105.306195,0.474276527 107.5,2.65688839 107.5,5.34927658 L107.5,34.5992765 C107.5,37.2916647 105.306195,39.4742765 102.6,39.4742765" id="Path" fill="#687DB0"></path>
            <path d="M160.6,39.4742765 L121.4,39.4742765 C118.693805,39.4742765 116.5,37.2916646 116.5,34.5992765 L116.5,5.34927658 C116.5,2.65688845 118.693805,0.474276601 121.4,0.474276527 L160.6,0.474276527 C163.306195,0.474276601 165.5,2.65688845 165.5,5.34927658 L165.5,34.5992765 C165.5,37.2916646 163.306195,39.4742765 160.6,39.4742765" id="Path" fill="#8497C0"></path>
        </g>
    </g>
</svg>