<?xml version="1.0" standalone="no"?><!DOCTYPE svg PUBLIC "-//W3C//DTD SVG 1.1//EN" "http://www.w3.org/Graphics/SVG/1.1/DTD/svg11.dtd"><svg t="1632473062804" class="icon" viewBox="0 0 1025 1024" version="1.1" xmlns="http://www.w3.org/2000/svg" p-id="3440" xmlns:xlink="http://www.w3.org/1999/xlink" width="16.015625" height="16"><defs><style type="text/css"></style></defs><path d="M915.2 478.4c-8-4.8-9.6-11.2-11.2-19.2-4.8-30.4-6.4-60.8-16-89.6-65.6-180.8-280-259.2-448-166.4-49.6 27.2-88 65.6-118.4 115.2-6.4-3.2-9.6-4.8-14.4-6.4-54.4-22.4-107.2-17.6-155.2 16-46.4 33.6-65.6 80-59.2 139.2 0 4.8-3.2 14.4-8 17.6C12.8 539.2-16 627.2 9.6 712c25.6 83.2 104 144 192 147.2 54.4 1.6 110.4 1.6 164.8 1.6 152 0 304 1.6 457.6-1.6 96-1.6 174.4-67.2 196.8-158.4 19.2-88-22.4-176-105.6-222.4z m38.4 284.8c-33.6 40-76.8 64-129.6 64-102.4 1.6-206.4 0-308.8 0 0 1.6-296 0-297.6 0-80 0-139.2-35.2-172.8-108.8-33.6-75.2-8-164.8 62.4-211.2 16-11.2 22.4-20.8 17.6-41.6-9.6-48 8-86.4 48-113.6 41.6-28.8 86.4-28.8 131.2-4.8 19.2 9.6 27.2 20.8 40-4.8 25.6-48 62.4-84.8 110.4-110.4 176-99.2 414.4 14.4 417.6 240 0 14.4 4.8 22.4 17.6 28.8 105.6 48 136 174.4 64 262.4z m-158.4-145.6c-11.2 56-62.4 99.2-121.6 99.2-30.4 0-57.6-11.2-80-32-49.6-46.4-129.6-136-174.4-169.6-36.8-27.2-76.8-22.4-108.8 6.4-91.2 80 28.8 220.8 121.6 139.2 8-6.4 14.4-17.6 22.4-24 14.4-9.6 38.4-1.6 24 19.2-32 48-89.6 68.8-142.4 52.8-52.8-16-88-65.6-88-128 1.6-40 22.4-78.4 64-100.8 41.6-22.4 84.8-24 121.6 4.8 92.8 70.4 137.6 148.8 195.2 184 44.8 27.2 97.6 12.8 124.8-32 52.8-89.6-62.4-190.4-142.4-115.2-8 6.4-12.8 16-20.8 20.8-19.2 12.8-32-8-24-19.2 36.8-51.2 91.2-73.6 150.4-51.2 57.6 24 89.6 83.2 78.4 145.6z" p-id="3441" fill="#8a8a8a"></path></svg>