<?xml version="1.0" encoding="UTF-8"?>
<svg width="175px" height="138px" viewBox="0 0 175 138" version="1.1" xmlns="http://www.w3.org/2000/svg" xmlns:xlink="http://www.w3.org/1999/xlink">
    <!-- Generator: Sketch 53.2 (72643) - https://sketchapp.com -->
    <title>line</title>
    <desc>Created with Sketch.</desc>
    <g id="Page-1" stroke="none" stroke-width="1" fill="none" fill-rule="evenodd">
        <g id="line" fill="#5067A2" fill-rule="nonzero">
            <path d="M25.2739189,111.655778 C26.7855309,111.657407 28.2007506,110.913642 29.0567232,109.667735 L69.3606163,51.4346379 L108.642876,94.5825372 C109.596174,95.6275458 110.977093,96.1760957 112.387618,96.0700817 C113.798143,95.9640677 115.081554,95.2152689 115.86794,94.0395069 L167.15209,17.582681 C168.126301,16.2187314 168.281888,14.4329668 167.558237,12.9210891 C166.834585,11.4092114 165.346152,10.4103472 163.672804,10.3136363 C161.999456,10.2169253 160.40586,11.0376639 159.512851,12.4561069 L111.496086,84.0348638 L72.2782537,40.9605957 C71.3313898,39.926718 69.968454,39.3754562 68.5690807,39.4603596 C67.1694417,39.5586882 65.8899144,40.2864616 65.0900052,41.4391988 L21.4911146,104.439918 C20.5200574,105.846972 20.4090348,107.676368 21.202809,109.190526 C21.9965833,110.704685 23.5643138,111.65402 25.2739189,111.655778" id="Path"></path>
            <path d="M170.272214,127.854648 L9.20390349,127.854648 L9.20390349,5.00465881 C9.20390349,2.46307104 7.14353951,0.402707066 4.60195174,0.402707066 C2.06036398,0.402707066 3.11254732e-16,2.46307104 0,5.00465881 L0,132.4566 C3.11254728e-16,134.998188 2.06036395,137.058552 4.60195168,137.058552 L170.272214,137.058552 C172.813801,137.058552 174.874165,134.998188 174.874165,132.4566 C174.874165,129.915012 172.813801,129.257355 170.272214,129.257355" id="Path"></path>
        </g>
    </g>
</svg>