<?xml version="1.0" encoding="UTF-8"?>
<svg width="19px" height="16px" viewBox="0 0 19 16" version="1.1" xmlns="http://www.w3.org/2000/svg" xmlns:xlink="http://www.w3.org/1999/xlink">
    <!-- Generator: Sketch 53.2 (72643) - https://sketchapp.com -->
    <title>Routes</title>
    <desc>Created with Sketch.</desc>
    <g id="Page-1" stroke="none" stroke-width="1" fill="none" fill-rule="evenodd">
        <g id="Routes" transform="translate(1.000000, 0.000000)">
            <path d="M5.83322583,6 L15.1813186,6 L15.2029426,6.00288938 C16.3016623,6.14969922 17.0733377,7.1594004 16.9265278,8.25812008 C16.8055231,9.16371504 16.0881744,9.87331399 15.1813186,9.98447525 L15.1813186,9.98447525 L1.82372361,9.98447525 L1.82372361,9.98447525 C0.716728733,10.0892819 -0.0957053639,11.0716411 0.00910126662,12.178636 C0.0944126331,13.0797168 0.770532538,13.8131125 1.6617207,13.9712528 L1.82372361,14 L11.2727429,14" id="Path-89" stroke="#5470C6" stroke-linecap="round" stroke-linejoin="round"></path>
            <circle id="Oval" stroke="#5470C6" cx="12.4938581" cy="14" r="1"></circle>
            <path d="M2.99906009,1.29674049e-13 C4.65994574,1.29674049e-13 6.00585121,1.41435658 5.99998087,3.16419091 C5.99998087,3.66261033 5.79302533,4.2652398 5.41501766,4.96375876 C5.21369659,5.34195042 4.96439078,5.74429062 4.67939123,6.15343362 C4.39363168,6.56225137 4.08921285,6.96502522 3.78437471,7.3355197 C3.68156522,7.46840445 3.58486192,7.58849669 3.49104138,7.68818058 C3.43713388,7.75122156 3.40172842,7.79626631 3.38217811,7.81447936 C3.17642809,8.06068066 2.83031415,8.06068066 2.62231034,7.82136345 C2.60443727,7.80241864 2.56683043,7.75721126 2.50613535,7.69522729 C2.42188031,7.59454061 2.3231853,7.47574929 2.21455788,7.342458 C1.90964112,6.97196352 1.60650643,6.56916257 1.32037998,6.16094108 C1.04125077,5.75033454 0.791918749,5.34902424 0.583862526,4.97058865 C0.206929328,4.27090427 0,3.66263743 0,3.16419091 C0,1.41438369 1.33943237,1.29674049e-13 2.99906009,1.29674049e-13 Z M3,4 C3.55228475,4 4,3.55228475 4,3 C4,2.44771525 3.55228475,2 3,2 C2.44771525,2 2,2.44771525 2,3 C2,3.55228475 2.44771525,4 3,4 Z" id="Combined-Shape" fill="#5470C6" fill-rule="nonzero"></path>
        </g>
    </g>
</svg>