<?xml version="1.0" encoding="UTF-8"?>
<svg width="163px" height="137px" viewBox="0 0 163 137" version="1.1" xmlns="http://www.w3.org/2000/svg" xmlns:xlink="http://www.w3.org/1999/xlink">
    <!-- Generator: Sketch 53.2 (72643) - https://sketchapp.com -->
    <title>lines</title>
    <desc>Created with Sketch.</desc>
    <g id="Page-1" stroke="none" stroke-width="1" fill="none" fill-rule="evenodd">
        <g id="lines" fill="#5067A2" fill-rule="nonzero">
            <path d="M118.024118,118.8 C120.522388,118.8 122.566427,120.8475 122.566427,123.35 C122.566427,125.8525 120.522388,127.9 118.024118,127.9 C115.517543,127.894993 113.486807,125.860819 113.481809,123.35 C113.481809,120.8475 115.525848,118.8 118.024118,118.8 Z M142.434485,46 L64.9673569,46 C62.4587091,46 60.4250482,48.0371044 60.4250482,50.55 C60.4250482,53.0628956 62.4587091,55.1 64.9673569,55.1 L142.034762,55.0909 C149.519307,56.1087027 154.7743,62.9956941 153.790257,70.4972 C152.963556,76.6852 148.066948,81.5264 142.434485,82.2544 L20.6642736,82.2726 C14.6272756,82.8301001 9.06337697,85.7822231 5.21133949,90.4717 C0.0521031846,96.7506172 -1.39663076,105.298969 1.40493936,112.931618 C4.20650947,120.564268 10.8382585,126.136619 18.8291809,127.5724 L105.232977,127.8909 C107.143393,133.33221 112.265894,136.980155 118.024118,137 C125.537097,137 131.651044,130.8757 131.651044,123.35 C131.651044,115.8243 125.537097,109.7 118.024118,109.7 C112.110032,109.7 107.113492,113.5129 105.232977,118.8 L21.8634431,118.8728 L20.4099043,118.618 C14.3307333,117.521702 9.72082575,112.509885 9.12680957,106.3512 C8.77445503,102.712306 9.88625731,99.0830035 12.2155795,96.2684 C14.5594108,93.4383 17.8571269,91.6911 21.0912506,91.3544 L142.988646,91.3271 C153.280464,90.058092 161.421536,81.9929721 162.802197,71.6984 C164.446513,59.2314 155.679857,47.729 142.434485,46 Z" id="Shape"></path>
            <path d="M31.9999101,18.2496933 C36.9704563,18.2496933 40.9998801,22.3350263 40.9998801,27.37454 C40.9998801,32.4140537 36.9704563,36.4993867 31.9999101,36.4993867 C27.0293639,36.4993867 22.9999401,32.4140537 22.9999401,27.37454 C22.9999401,22.3350263 27.0293639,18.2496933 31.9999101,18.2496933 Z M16.8799604,56.2181803 C19.4539519,59.9411177 22.1809428,63.6184309 24.9259336,66.9946242 C25.9069304,68.2173537 26.7979274,69.3032104 27.5539249,70.2156951 C28.1029231,70.7814356 28.435922,71.1920537 28.5979214,71.3654258 C30.4699152,73.555389 33.5839048,73.555389 35.4378986,71.3015518 C35.617898,71.1373046 35.932897,70.7266865 36.4188954,70.1518212 C37.2648925,69.2393365 38.1288897,68.1443549 39.0558866,66.9307503 C41.8008774,63.554557 44.5368683,59.8863687 47.1108598,56.1451815 C49.6758512,52.4131192 51.9258437,48.7449309 53.7348377,45.2957388 C57.1368264,38.917471 58.9998202,33.4243133 58.9998202,28.8710148 C59.05382,12.911658 46.9398603,0 31.9909101,0 C17.0509599,0 5,12.911658 5,28.8710148 C5,33.4243133 6.8629938,38.9722201 10.2559825,45.3596128 C12.1279763,48.8088048 14.3689688,52.4678683 16.8799604,56.2181803 Z" id="Shape"></path>
        </g>
    </g>
</svg>