<?xml version="1.0" encoding="UTF-8"?>
<svg width="175px" height="148px" viewBox="0 0 175 148" version="1.1" xmlns="http://www.w3.org/2000/svg" xmlns:xlink="http://www.w3.org/1999/xlink">
    <!-- Generator: Sketch 53.2 (72643) - https://sketchapp.com -->
    <title>parallel</title>
    <desc>Created with Sketch.</desc>
    <g id="Page-1" stroke="none" stroke-width="1" fill="none" fill-rule="evenodd">
        <g id="parallel" fill="#5067A2" fill-rule="nonzero">
            <path d="M119.966527,90.2642567 L119.966527,71.4595035 L164.953975,91.1040224 L164.953975,117.16675 L119.966527,90.2642567 Z M99.5422259,68.8202399 L109.969317,68.8202399 L109.969317,80.2370544 L99.5422259,68.8202399 Z M64.9818688,58.8230293 L64.9818688,45.8666444 L76.8485579,58.8230293 L64.9818688,58.8230293 L64.9818688,58.8230293 Z M9.99721065,95.6627504 L9.99721065,37.9888424 L54.9846583,37.9888424 L54.9846583,61.3523236 L9.99721065,95.6627504 Z M170,2.04051565e-11 C167.238576,2.04245402e-11 165,2.23857623 165,4.99999995 L165,80.2194419 L120,60.5694419 L120,5.00139509 C120,2.23997133 117.761424,0.00139506489 115,0.00139506489 C112.238576,0.00139506489 110,2.23997133 110,5.00139509 L110,58.8394419 L90.42,58.8394419 L64.9999999,31.059442 L64.9999999,5.00139509 C64.9999999,2.23997137 62.7614237,0.00139513813 60,0.00139513813 C57.2385763,0.00139513813 55,2.23997137 55,5.00139509 L55,27.999442 L10,27.999442 L10,4.99999995 C10,2.23857619 7.76142378,-7.3221713e-08 5.00000002,-7.32217131e-08 C2.23857626,-7.32217133e-08 3.38176877e-16,2.23857619 0,4.99999995 L0,142.999442 C3.38176877e-16,145.760866 2.23857626,147.999442 5.00000002,147.999442 C7.76142378,147.999442 10,145.760866 10,142.999442 L10,108.249442 L55,73.9494419 L55,142.999442 C55,145.760866 57.2385763,147.999442 60,147.999442 C62.7614237,147.999442 64.9999999,145.760866 64.9999999,142.999442 L64.9999999,68.839442 L86.01,68.839442 L110,95.0694419 L110,142.999442 C110,145.760866 112.238576,147.999442 115,147.999442 C117.761424,147.999442 120,145.760866 120,142.999442 L120,101.939442 L165,128.839442 L165,142.999442 C165,145.760866 167.238576,147.999442 170,147.999442 C172.761424,147.999442 175,145.760866 175,142.999442 L175,4.99999995 C175,3.67391749 174.473216,2.40214791 173.535534,1.46446603 C172.597852,0.526784141 171.326082,-3.88296707e-08 170,2.04051565e-11 Z" id="Shape"></path>
        </g>
    </g>
</svg>