<?xml version="1.0" encoding="UTF-8"?>
<svg width="175px" height="141px" viewBox="0 0 175 141" version="1.1" xmlns="http://www.w3.org/2000/svg" xmlns:xlink="http://www.w3.org/1999/xlink">
    <!-- Generator: Sketch 53.2 (72643) - https://sketchapp.com -->
    <title>pictorialBar</title>
    <desc>Created with Sketch.</desc>
    <g id="Page-1" stroke="none" stroke-width="1" fill="none" fill-rule="evenodd">
        <g id="pictorialBar" fill="#5067A2" fill-rule="nonzero">
            <path d="M165.182447,113.123194 C161.75364,113.169204 158.605604,115.027549 156.908673,118.007359 L62.4782339,118.007359 C59.7807842,118.007359 57.5940692,120.194074 57.5940692,122.891524 C57.5940692,125.588973 59.7807842,127.775688 62.4782339,127.775688 L156.908673,127.775688 C158.605604,130.755498 161.75364,132.613843 165.182447,132.659853 C170.576885,132.6592 174.949595,128.285961 174.949595,122.891524 C174.949595,117.497086 170.576885,113.123847 165.182447,113.123194 L165.182447,113.123194 Z M165.182447,78.9340419 C161.75364,78.980052 158.605603,80.8383969 156.908673,83.8182066 L77.2674843,83.8182066 C74.5700347,83.8182066 72.3833197,86.0049216 72.3833197,88.7023712 C72.3833197,91.3998208 74.5700347,93.5865358 77.2674843,93.5865358 L156.908673,93.5865358 C158.605603,96.5663455 161.75364,98.4246904 165.182447,98.4707005 C170.577347,98.4707005 174.950777,94.0972705 174.950777,88.7023712 C174.950777,83.3074719 170.577347,78.9340419 165.182447,78.9340419 L165.182447,78.9340419 Z M165.182447,44.7448896 C170.407595,44.9786234 174.523583,49.2828462 174.523583,54.5132188 C174.523583,59.7435915 170.407595,64.0478142 165.182447,64.2815481 C161.75364,64.235538 158.605604,62.3771932 156.908673,59.3973835 L77.2674843,59.3973835 C74.5700346,59.3973835 72.3833196,57.2106685 72.3833196,54.5132188 C72.3833196,51.8157692 74.5700346,49.6290542 77.2674843,49.6290542 L156.908673,49.6290542 C158.605604,46.6492445 161.75364,44.7908997 165.182447,44.7448896 Z M62.6149904,20.3240665 C62.6149904,19.0287054 63.1295706,17.7863991 64.0455291,16.8704405 C64.9614877,15.954482 66.2037941,15.4399018 67.4991551,15.4399019 L156.908673,15.4399019 C158.605604,12.4600922 161.75364,10.6017474 165.182447,10.5557373 C170.407595,10.7894711 174.523583,15.0936938 174.523583,20.3240665 C174.523583,25.5544392 170.407595,29.8586619 165.182447,30.0923957 C161.75364,30.0463857 158.605604,28.1880408 156.908673,25.2082312 L67.4991551,25.2082312 C66.2037941,25.2082312 64.9614877,24.6936511 64.0455291,23.7776925 C63.1295705,22.8617339 62.6149904,21.6194275 62.6149904,20.3240665 Z M23.5416735,29.3240665 C31.6340224,29.3240665 38.1941674,22.7639215 38.1941674,14.6715726 C38.1941674,6.57922368 31.6340224,0.0190787204 23.5416735,0.0190787204 C15.4493246,0.0190787204 8.88917966,6.57922368 8.88917966,14.6715726 C8.88917966,22.7639215 15.4493246,29.3240665 23.5416735,29.3240665 Z M34.0523957,34.2082312 L13.0211829,34.2082312 C10.6337153,34.2093302 8.59694107,35.9362503 8.20539657,38.2913927 L0.0683783524,87.133039 C-0.166957522,88.5485838 0.232108973,89.996 1.15960938,91.0909397 C2.08710979,92.1858793 3.44919091,92.8175461 4.88416457,92.8182066 L8.88917966,92.8182066 L9.0426883,136.115835 C9.0426883,138.813285 11.2294033,141 13.9268529,141 L33.4635113,141 C34.7588723,141 36.0011787,140.48542 36.9171373,139.569461 C37.8330959,138.653503 38.347676,137.411196 38.347676,136.115835 L38.1941674,92.8182066 L42.189414,92.8182066 C43.6255482,92.8209447 44.9898051,92.1902296 45.9180572,91.0944026 C46.8463094,89.9985755 47.2440794,88.5491696 47.0052003,87.133039 L38.8681821,38.2913927 C38.4766376,35.9362503 36.4398634,34.2093302 34.0523957,34.2082312 Z" id="Shape"></path>
        </g>
    </g>
</svg>