<?xml version="1.0" encoding="UTF-8"?>
<svg width="17px" height="19px" viewBox="0 0 17 19" version="1.1" xmlns="http://www.w3.org/2000/svg" xmlns:xlink="http://www.w3.org/1999/xlink">
    <!-- Generator: Sketch 53.2 (72643) - https://sketchapp.com -->
    <title>pie</title>
    <desc>Created with Sketch.</desc>
    <g id="Page-1" stroke="none" stroke-width="1" fill="none" fill-rule="evenodd">
        <g id="pie" fill="#5470C6">
            <path d="M8.5,0.819577453 L8.5,9.44103873 L15.7390564,5.76978906 C15.777226,5.77126307 15.8510153,5.72289657 15.9234453,5.67627717 L16.0891474,5.59224224 C16.1010283,5.59183461 16.1098111,5.59573572 16.1145121,5.60531802 C16.1714991,5.72147826 16.2259785,5.83912683 16.2778784,5.95819085 C16.742145,7.02326862 17,8.20161075 17,9.44103873 C17,14.2025403 13.1944204,18.0625 8.5,18.0625 C3.80557963,18.0625 0,14.2025403 0,9.44103873 C0,4.67953714 3.80557963,0.819577453 8.5,0.819577453 Z M10.2,0 C12.6595429,0.24768778 14.8106646,1.55877565 16.2001362,3.47355837 L10.2,6.85460034 L10.2,0 Z" id="Oval-126"></path>
        </g>
    </g>
</svg>