<?xml version="1.0" encoding="UTF-8"?>
<svg width="144px" height="152px" viewBox="0 0 144 152" version="1.1" xmlns="http://www.w3.org/2000/svg" xmlns:xlink="http://www.w3.org/1999/xlink">
    <!-- Generator: Sketch 53.2 (72643) - https://sketchapp.com -->
    <title>pie (2)</title>
    <desc>Created with Sketch.</desc>
    <g id="Page-1" stroke="none" stroke-width="1" fill="none" fill-rule="evenodd">
        <g id="pie-(2)" transform="translate(0.000000, -0.612903)" fill="#5067A2" fill-rule="nonzero">
            <path d="M72.1778824,12.9606446 L72.1778824,73.6462877 C72.1779317,75.129331 72.9386663,76.5065116 74.1881954,77.2856176 C75.4377246,78.0647237 76.9977039,78.1345538 78.3105882,77.4701504 L128.354824,52.1402676 L132.666353,49.9503148 C134.757503,48.8920984 137.302156,49.7461658 138.350118,51.857969 L138.468706,52.1060495 L138.782118,52.8930638 C140.942118,58.6416896 144,65.8873535 144,83.8518095 C144,116.316148 115.123765,152.612903 73.2282353,152.612903 C31.3242354,152.612903 0,119.994584 0,80.8406245 C0,44.5353146 27.216,13.7391044 62.2588236,9.22232682 C64.122353,8.98280072 65.9265883,8.80315611 67.6715294,8.69194766 C68.8395088,8.61630135 69.986418,9.03213213 70.8400527,9.84074781 C71.6936873,10.6493635 72.1779411,11.7786714 72.1778824,12.9606446 Z M90.0254118,0.659269609 C88.9814749,0.488081123 87.9163292,0.795987208 87.1201941,1.49909291 C86.324059,2.20219861 85.8798887,3.22724309 85.9087059,4.29493319 L85.9087059,54.6039644 C85.9087059,56.9393437 87.6028236,57.8717845 89.5680001,56.7511446 L133.149176,31.9088684 C134.092985,31.4117209 134.762111,30.50855 134.968019,29.4538349 C135.173928,28.3991197 134.894328,27.3070442 134.208,26.4853136 C134.208,26.4853136 133.538824,25.5357637 132.446118,24.3381334 C127.296,18.6921614 122.832,14.7399812 116.860235,10.9417819 C109.345997,6.07770841 100.978781,2.71218494 92.2108235,1.0271132 C89.9745882,0.599388123 90.0254118,0.659269609 90.0254118,0.659269609 L90.0254118,0.659269609 Z" id="Shape"></path>
        </g>
    </g>
</svg>