<?xml version="1.0" encoding="UTF-8"?>
<svg width="151px" height="170px" viewBox="0 0 151 170" version="1.1" xmlns="http://www.w3.org/2000/svg" xmlns:xlink="http://www.w3.org/1999/xlink">
    <!-- Generator: Sketch 53.2 (72643) - https://sketchapp.com -->
    <title>radar</title>
    <desc>Created with Sketch.</desc>
    <g id="Page-1" stroke="none" stroke-width="1" fill="none" fill-rule="evenodd">
        <g id="radar" transform="translate(0.500000, 0.000000)" fill="#5067A2" fill-rule="nonzero">
            <path d="M79.573911,32.0195055 C79.7511468,32.0807796 79.9252225,32.1507623 80.0954971,32.2291958 L126.376239,53.5077701 C128.225278,54.3572545 129.374745,56.2354539 129.285085,58.2607506 L126.927916,110.733256 C126.832633,112.851954 125.405699,114.680595 123.367088,115.296516 L76.444394,129.315811 C75.5054275,129.595861 74.5046062,129.595861 73.5656397,129.315811 L32.4706683,117.053921 C30.8367372,116.566659 29.5635821,115.286115 29.0909814,113.654618 C28.6183807,112.023122 29.0111288,110.264354 30.133561,108.985836 L59.2822032,75.635091 C59.7218624,75.142978 60.0532763,74.5647698 60.2551619,73.937598 L73.2246026,35.1848307 C74.1062345,32.570839 76.9431645,31.1565423 79.573911,32.0195055 L79.573911,32.0195055 Z M139.476076,121.926724 L75.0000016,158.991984 L10.5239274,121.926724 L10.5239274,47.816176 L75.0000016,10.7509165 L139.476076,47.816176 L139.476076,121.926724 Z M146.998953,40.6068232 L77.5076273,0.665810956 C75.9548023,-0.221936985 74.0452007,-0.221936985 72.4923757,0.665810956 L3.00105014,40.6068232 C1.44784731,41.4971353 0.491395456,43.1462367 0.493424274,44.9304378 L0.493424274,124.812462 C0.493424274,126.599823 1.44632208,128.247389 3.00105014,129.136077 L72.4923757,169.077089 C74.047355,169.95676 75.9526481,169.95676 77.5076273,169.077089 L146.998953,129.136077 C148.550638,128.244253 149.506533,126.596111 149.506579,124.812462 L149.506579,44.9304378 C149.506533,43.1467894 148.550638,41.4986473 146.998953,40.6068232 L146.998953,40.6068232 Z" id="Shape"></path>
        </g>
    </g>
</svg>