<?xml version="1.0" encoding="UTF-8"?>
<svg width="19px" height="17px" viewBox="0 0 19 17" version="1.1" xmlns="http://www.w3.org/2000/svg" xmlns:xlink="http://www.w3.org/1999/xlink">
    <!-- Generator: Sketch 53.2 (72643) - https://sketchapp.com -->
    <title>Rich Text</title>
    <desc>Created with Sketch.</desc>
    <g id="Page-1" stroke="none" stroke-width="1" fill="none" fill-rule="evenodd">
        <g id="Rich-Text" transform="translate(0.000000, 1.000000)">
            <path d="M15,6 L4,6 L4,0.5 C4,0.223857625 4.22385763,5.07265313e-17 4.5,0 L11.0055018,0 L11.0055018,3.49699348 C11.0055018,3.77313585 11.2293594,3.99699348 11.5055018,3.99699348 L15,3.99699348 L15,6 Z M15,12 L15,14.5 C15,14.7761424 14.7761424,15 14.5,15 L4.5,15 C4.22385763,15 4,14.7761424 4,14.5 L4,12 L15,12 Z" id="Combined-Shape" stroke="#5470C6" stroke-linejoin="round"></path>
            <path d="M11,1.85318427e-12 L15.0055018,3.99699348" id="Path-98-Copy-4" stroke="#5470C6" stroke-linecap="round"></path>
            <path d="M1,5.5 L18,5.5 C18.5522847,5.5 19,5.94771525 19,6.5 L19,11.5 C19,12.0522847 18.5522847,12.5 18,12.5 L1,12.5 C0.44771525,12.5 6.76353751e-17,12.0522847 0,11.5 L0,6.5 C-6.76353751e-17,5.94771525 0.44771525,5.5 1,5.5 Z M4.03085938,10.8 L5.14169922,10.8 L5.14169922,9.34736328 L5.23935547,9.34736328 C5.34026743,9.34736328 5.43059856,9.37503228 5.51035156,9.43037109 C5.56894561,9.47268901 5.63567671,9.56464773 5.71054688,9.70625 L6.30136719,10.8 L7.55136719,10.8 L7.01669922,9.76240234 C6.99065742,9.71031875 6.93898151,9.6362635 6.86166992,9.54023437 C6.78435834,9.44420525 6.72535828,9.38154312 6.68466797,9.35224609 C6.62444631,9.30830056 6.52841863,9.26435569 6.39658203,9.22041016 C6.56097087,9.18297507 6.69036411,9.13577502 6.78476563,9.07880859 C6.93287834,8.98928992 7.04925088,8.87251049 7.13388672,8.7284668 C7.21852256,8.58442311 7.26083984,8.41311948 7.26083984,8.21455078 C7.26083984,7.98668506 7.20550186,7.793409 7.09482422,7.6347168 C6.98414658,7.4760246 6.83847747,7.36738311 6.6578125,7.30878906 C6.47714753,7.25019502 6.21591968,7.22089844 5.87412109,7.22089844 L4.03085938,7.22089844 L4.03085938,10.8 Z M5.14169922,8.67109375 L5.14169922,7.94355469 L5.62753906,7.94355469 C5.82936299,7.94355469 5.96689417,7.97447886 6.04013672,8.03632812 C6.11337927,8.09817739 6.15,8.18688093 6.15,8.30244141 C6.15,8.3805668 6.12680687,8.44973928 6.08041992,8.50996094 C6.03403297,8.57018259 5.97421912,8.60761711 5.90097656,8.62226562 C5.75611907,8.65481787 5.65846379,8.67109375 5.60800781,8.67109375 L5.14169922,8.67109375 Z M7.98496094,7.22089844 L7.98496094,8.1046875 L9.11289063,8.1046875 L9.11289063,10.8 L10.2188477,10.8 L10.2188477,8.1046875 L11.3467773,8.1046875 L11.3467773,7.22089844 L7.98496094,7.22089844 Z M12.2271484,7.22089844 L12.2271484,10.8 L13.3379883,10.8 L13.3379883,9.33759766 L14.724707,9.33759766 L14.724707,8.61494141 L13.3379883,8.61494141 L13.3379883,7.98994141 L14.9615234,7.98994141 L14.9615234,7.22089844 L12.2271484,7.22089844 Z" id="Combined-Shape" fill="#5470C6"></path>
            <polygon id="Path-147" fill="#5470C6" points="11.3030398 0.600754038 11.0055018 4.14369929 15 4.14369929"></polygon>
        </g>
    </g>
</svg>