<?xml version="1.0" encoding="UTF-8"?>
<svg width="167px" height="162px" viewBox="0 0 167 162" version="1.1" xmlns="http://www.w3.org/2000/svg" xmlns:xlink="http://www.w3.org/1999/xlink">
    <!-- Generator: Sketch 53.2 (72643) - https://sketchapp.com -->
    <title>rich</title>
    <desc>Created with Sketch.</desc>
    <g id="Page-1" stroke="none" stroke-width="1" fill="none" fill-rule="evenodd">
        <g id="rich" fill="#5067A2" fill-rule="nonzero">
            <path d="M5.52634288,101.24857 L96.0005147,101.24857 C98.7764873,101.24857 101.026858,98.9820436 101.026858,96.1861415 C101.026858,93.3902395 98.7764873,91.123713 96.0005147,91.123713 L5.52634288,91.123713 C2.75037036,91.123713 0.5,93.3902395 0.5,96.1861415 C0.5,98.9820436 2.75037036,101.24857 5.52634288,101.24857 Z M75.8951432,121.498284 L5.52634288,121.498284 C2.75037036,121.498284 0.5,123.76481 0.5,126.560713 C0.5,129.356615 2.75037036,131.623141 5.52634288,131.623141 L75.8951432,131.623141 C78.6711157,131.623141 80.9214861,129.356615 80.9214861,126.560713 C80.9214861,123.76481 78.6711157,121.498284 75.8951432,121.498284 Z M146.394628,92.0653247 L128.923061,116.435856 L146.394628,116.435856 L146.394628,92.0653247 Z M166.5,60.749142 L166.5,151.872855 C166.5,157.464659 161.999259,161.997712 156.447314,161.997712 C150.895369,161.997712 146.394628,157.464659 146.394628,151.872855 L146.394628,136.68557 L114.406982,136.68557 L99.2575849,157.806021 C96.0041451,162.338178 89.7188607,163.355849 85.2190093,160.079052 C80.7191578,156.802254 79.7087415,150.471846 82.9621813,145.939689 L148.304639,54.8261007 C148.455429,54.6033538 148.706746,54.4919804 148.867589,54.2894832 C149.318111,53.7697312 149.823755,53.3011987 150.375492,52.892253 C150.857637,52.4854402 151.379728,52.1292264 151.933658,51.829143 C152.481136,51.5631055 153.053631,51.3528145 153.642615,51.2014019 C154.31205,50.9842108 155.003114,50.8416105 155.703415,50.7761579 C155.954733,50.7559082 156.185944,50.624285 156.447314,50.624285 C156.819264,50.624285 157.130897,50.7964076 157.492794,50.836907 C158.850886,50.9717079 160.164137,51.3999382 161.342972,52.0923893 C161.674711,52.2746367 162.036608,52.3151361 162.338188,52.537883 C162.559347,52.7100056 162.659874,52.9428773 162.87098,53.1251247 C163.403773,53.5807433 163.836038,54.0869861 164.268304,54.6337284 C164.650306,55.1399712 165.022255,55.6259644 165.30373,56.1929564 C165.585206,56.7498235 165.766154,57.3370652 165.947102,57.9546815 C166.138103,58.6330469 166.298946,59.2709129 166.34921,59.969528 C166.369315,60.2428992 166.5,60.4757709 166.5,60.749142 L166.5,60.749142 Z M55.7897717,151.872855 L5.52634288,151.872855 C2.75037036,151.872855 0.5,154.139381 0.5,156.935284 C0.5,159.731186 2.75037036,161.997712 5.52634288,161.997712 L55.7897717,161.997712 C58.5657442,161.997712 60.8161146,159.731186 60.8161146,156.935284 C60.8161146,154.139381 58.5657442,151.872855 55.7897717,151.872855 Z M86.3887335,40.499428 L161.100608,40.499428 C164.04791,40.499428 166.437171,38.2329016 166.437171,35.4369995 C166.437171,32.6410974 164.04791,30.374571 161.100608,30.374571 L86.3887335,30.374571 C83.4414314,30.374571 81.052171,32.6410974 81.052171,35.4369995 C81.052171,38.2329016 83.4414314,40.499428 86.3887335,40.499428 Z M86.3887335,10.124857 L161.100608,10.124857 C164.04791,10.124857 166.437171,7.85833056 166.437171,5.0624285 C166.437171,2.26652644 164.04791,1.71199625e-16 161.100608,0 L86.3887335,0 C83.4414314,-1.71199625e-16 81.052171,2.26652644 81.052171,5.0624285 C81.052171,7.85833056 83.4414314,10.124857 86.3887335,10.124857 Z M5.6570278,70.873999 L60.9467995,70.873999 C63.722772,70.873999 65.9731424,68.6074726 65.9731424,65.8115705 L65.9731424,5.0624285 C65.9731424,2.26652644 63.722772,1.71199625e-16 60.9467995,0 L5.6570278,0 C2.88105528,-1.71199625e-16 0.630684915,2.26652644 0.630684915,5.0624285 L0.630684915,65.8115705 C0.630684915,68.6074726 2.88105528,70.873999 5.6570278,70.873999 Z M81.052171,65.8115705 C81.052171,63.0156685 83.3025414,60.749142 86.0785139,60.749142 L116.236571,60.749142 C119.012544,60.749142 121.262914,63.0156685 121.262914,65.8115705 C121.262914,68.6074726 119.012544,70.873999 116.236571,70.873999 L86.0785139,70.873999 C83.3025414,70.873999 81.052171,68.6074726 81.052171,65.8115705 Z" id="Shape"></path>
        </g>
    </g>
</svg>