<?xml version="1.0" encoding="UTF-8"?>
<svg width="175px" height="139px" viewBox="0 0 175 139" version="1.1" xmlns="http://www.w3.org/2000/svg" xmlns:xlink="http://www.w3.org/1999/xlink">
    <!-- Generator: Sketch 53.2 (72643) - https://sketchapp.com -->
    <title>sankey</title>
    <desc>Created with Sketch.</desc>
    <g id="Page-1" stroke="none" stroke-width="1" fill="none" fill-rule="evenodd">
        <g id="sankey" fill-rule="nonzero">
            <path d="M4.60195168,138.058552 C2.06036395,138.058552 3.11254728e-16,135.998188 0,133.4566 L0,115.048793 C-3.11254732e-16,112.507205 2.06036398,110.446841 4.60195174,110.446841 C7.14353951,110.446841 9.20390349,112.507205 9.20390349,115.048793 L9.20390349,133.4566 C9.20390349,134.677113 8.71905638,135.847638 7.856023,136.710671 C6.99298962,137.573705 5.82246517,138.058552 4.60195168,138.058552 M4.60195168,106.820503 C2.06036395,106.820503 3.11254728e-16,104.760139 0,102.218552 L0,4.60195168 C-3.11254732e-16,2.06036391 2.06036398,-6.74114049e-08 4.60195174,-6.74114054e-08 C7.14353951,-6.74114058e-08 9.20390349,2.06036391 9.20390349,4.60195168 L9.20390349,102.218552 C9.20390349,103.439065 8.71905638,104.60959 7.856023,105.472623 C6.99298962,106.335656 5.82246517,106.820503 4.60195168,106.820503" id="Shape" fill="#5067A2"></path>
            <path d="M4.60195168,106.820503 C2.06036395,106.820503 3.11254728e-16,104.760139 0,102.218552 L0,4.60195168 C-3.11254732e-16,2.06036391 2.06036398,-6.74114049e-08 4.60195174,-6.74114054e-08 C7.14353951,-6.74114058e-08 9.20390349,2.06036391 9.20390349,4.60195168 L9.20390349,102.218552 C9.20390349,103.439065 8.71905638,104.60959 7.856023,105.472623 C6.99298962,106.335656 5.82246517,106.820503 4.60195168,106.820503" id="Path" fill="#5067A2"></path>
            <path d="M87.4370826,64.4273241 C86.2165692,64.4273241 85.0460447,63.942477 84.1830114,63.0794436 C83.319978,62.2164103 82.8351309,61.0458858 82.835131,59.8253723 L82.835131,4.60195168 C82.835131,2.06036391 84.8954949,-6.74113054e-08 87.4370827,-6.74113059e-08 C89.9786705,-6.74113063e-08 92.0390345,2.06036391 92.0390345,4.60195168 L92.0390345,59.8253723 C92.0390345,61.0458858 91.5541874,62.2164103 90.691154,63.0794437 C89.8281206,63.9424771 88.6575962,64.4273242 87.4370826,64.4273241 M170.272214,38.2054031 C167.730626,38.2054031 165.670262,36.1450392 165.670262,33.6034515 L165.670262,4.60195168 C165.670262,2.06036391 167.730626,-6.74114049e-08 170.272214,-6.74114054e-08 C172.813801,-6.74114058e-08 174.874165,2.06036391 174.874165,4.60195168 L174.874165,33.6034515 C174.874165,34.823965 174.389318,35.9944894 173.526285,36.8575227 C172.663252,37.7205561 171.492727,38.2054032 170.272214,38.2054031 M105.84489,138.058552 C104.624376,138.058552 103.453852,137.573705 102.590818,136.710671 C101.727785,135.847638 101.242938,134.677113 101.242938,133.4566 L101.242938,78.2331793 C101.242938,75.6915915 103.303302,73.6312276 105.84489,73.6312276 C108.386477,73.6312276 110.446841,75.6915915 110.446841,78.2331793 L110.446841,133.4566 C110.446841,135.998188 108.386477,138.058552 105.84489,138.058552 M170.272214,138.058552 C167.730626,138.058552 165.670262,135.998188 165.670262,133.4566 L165.670262,48.3020853 C165.670262,45.7604975 167.730626,43.7001336 170.272214,43.7001336 C172.813801,43.7001336 174.874165,45.7604975 174.874165,48.3020853 L174.874165,133.4566 C174.874165,134.677113 174.389318,135.847638 173.526285,136.710671 C172.663252,137.573705 171.492727,138.058552 170.272214,138.058552" id="Shape" fill="#5067A2"></path>
            <polygon id="Path" fill="#95A5C8" points="110.446841 133.4566 165.670262 133.4566 165.670262 78.2331793 110.446841 78.2331793"></polygon>
            <polygon id="Path" fill="#5067A2" points="165.670262 133.4566 174.874165 133.4566 174.874165 78.2331793 165.670262 78.2331793"></polygon>
            <path d="M165.670262,77.9478582 C124.491998,75.6100668 130.198418,59.8345763 92.0390345,59.8253723 L92.0390345,32.213662 C124.832542,32.2228659 136.825229,48.0167643 165.670262,48.6242219 L165.670262,77.9478582" id="Path" fill="#95A5C8"></path>
            <path d="M92.0390345,59.8253723 L92.0022188,59.8253723 L92.0022188,32.213662 L92.0390345,32.213662 L92.0390345,59.8253723 M174.874165,78.2331793 C171.56076,78.2055676 168.505064,78.1135285 165.670262,77.9478582 L165.670262,48.6242219 L167.400596,48.6426296 C169.765999,48.6426296 172.260257,48.5413867 174.874165,48.3204931 L174.874165,78.2331793" id="Shape" fill="#5067A2"></path>
            <polygon id="Path" fill="#95A5C8" points="92.0390345 32.213662 165.670262 32.213662 165.670262 4.60195168 92.0390345 4.60195168"></polygon>
            <path d="M82.835131,32.213662 L92.0390345,32.213662 L92.0390345,4.60195168 L82.835131,4.60195168 L82.835131,32.213662 Z M165.670262,32.213662 L174.506009,32.213662 L174.506009,4.60195168 L165.670262,4.60195168 L165.670262,32.213662 Z" id="Shape" fill="#5067A2"></path>
            <polygon id="Path" fill="#95A5C8" points="9.20390349 59.8253723 82.835131 59.8253723 82.835131 4.60195168 9.20390349 4.60195168"></polygon>
            <polyline id="Path" fill="#5067A2" points="82.835131 59.8253723 82.835131 4.60195168 82.835131 59.8253723"></polyline>
            <polygon id="Path" fill="#95A5C8" points="9.20390349 133.4566 101.242938 133.4566 101.242938 115.048793 9.20390349 115.048793"></polygon>
            <polygon id="Path" fill="#5067A2" points="101.242938 133.4566 110.446841 133.4566 110.446841 115.048793 101.242938 115.048793"></polygon>
            <path d="M101.242938,115.048793 C43.4792398,114.699045 52.1585208,101.445424 9.20390349,101.445424 L9.20390349,59.8253723 C56.5579867,59.8253723 47.7682589,78.1319363 101.242938,78.2331793 L101.242938,115.048793" id="Path" fill="#95A5C8"></path>
            <path d="M101.675521,115.048793 L101.242938,115.048793 L101.242938,78.2331793 L101.675521,78.2331793 C104.335449,78.2331793 100.46981,113.723431 101.675521,115.048793" id="Path" fill="#5067A2"></path>
        </g>
    </g>
</svg>