<?xml version="1.0" encoding="UTF-8"?>
<svg width="175px" height="138px" viewBox="0 0 175 138" version="1.1" xmlns="http://www.w3.org/2000/svg" xmlns:xlink="http://www.w3.org/1999/xlink">
    <!-- Generator: Sketch 53.2 (72643) - https://sketchapp.com -->
    <title>scatter</title>
    <desc>Created with Sketch.</desc>
    <g id="Page-1" stroke="none" stroke-width="1" fill="none" fill-rule="evenodd">
        <g id="scatter" fill="#5067A2" fill-rule="nonzero">
            <path d="M173.526285,129.202529 C172.663252,128.339495 171.492727,127.854648 170.272214,127.854648 L9.20390349,127.854648 L9.20390349,4.60195168 C9.20390349,2.06036391 7.14353951,-6.74112924e-08 4.60195174,-6.74112925e-08 C2.06036398,-6.74112927e-08 3.11254732e-16,2.06036391 0,4.60195168 L0,132.4566 C3.11254728e-16,134.998188 2.06036395,137.058552 4.60195168,137.058552 L170.272214,137.058552 C171.492727,137.058552 172.663252,136.573705 173.526285,135.710671 C174.389318,134.847638 174.874165,133.677113 174.874165,132.4566 C174.874165,131.236086 174.389318,130.065562 173.526285,129.202529 Z M151.864407,12.8058552 C155.15291,12.8054572 158.191783,14.5596242 159.836149,17.4074853 C161.480516,20.2553464 161.480516,23.7641708 159.836149,26.6120319 C158.191783,29.459893 155.15291,31.21406 151.864407,31.213662 C146.781666,31.2130468 142.661617,27.0924991 142.661617,22.0097586 C142.661617,16.9270181 146.781666,12.8064703 151.864407,12.8058552 Z M142.660503,58.8253723 C147.743679,58.8253723 151.864407,62.9461003 151.864407,68.0292758 C151.864407,73.1124513 147.743679,77.2331793 142.660503,77.2331793 C137.577328,77.2331793 133.4566,73.1124513 133.4566,68.0292758 C133.4566,62.9461003 137.577328,58.8253723 142.660503,58.8253723 Z M124.252696,40.4175655 C127.5412,40.4171675 130.580072,42.1713345 132.224439,45.0191956 C133.868806,47.8670567 133.868806,51.3758811 132.224439,54.2237422 C130.580072,57.0716033 127.5412,58.8257703 124.252696,58.8253723 C119.169956,58.8247572 115.049907,54.7042094 115.049907,49.6214689 C115.049907,44.5387284 119.169956,40.4181807 124.252696,40.4175655 L124.252696,40.4175655 Z M105.84489,22.0097586 C109.133393,22.0093606 112.172266,23.7635277 113.816632,26.6113888 C115.460999,29.4592498 115.460999,32.9680743 113.816632,35.8159354 C112.172266,38.6637965 109.133393,40.4179635 105.84489,40.4175655 C100.762149,40.4169503 96.6421001,36.2964026 96.6421001,31.2136621 C96.6421001,26.1309216 100.762149,22.0103738 105.84489,22.0097586 L105.84489,22.0097586 Z M105.84489,58.8253723 C110.928065,58.8253723 115.048793,62.9461003 115.048793,68.0292758 C115.048793,73.1124513 110.928065,77.2331793 105.84489,77.2331793 C100.761714,77.2331793 96.6409861,73.1124513 96.6409861,68.0292758 C96.6409861,62.9461003 100.761714,58.8253723 105.84489,58.8253723 L105.84489,58.8253723 Z M87.4370826,77.2331793 C90.8200008,77.0784213 94.0146452,78.7938663 95.7543045,81.6993216 C97.4939639,84.6047768 97.4975937,88.2308616 95.7637545,91.1397939 C94.0299154,94.0487262 90.8387117,95.7705634 87.4554905,95.6225784 C82.5370015,95.4074394 78.6587219,91.3598697 78.6537937,86.4366802 C78.6488656,81.5134907 82.5190342,77.4581647 87.4370826,77.2331793 L87.4370826,77.2331793 Z M59.8253723,68.0292758 C63.1138756,68.0288778 66.1527483,69.7830448 67.7971148,72.6309059 C69.4414814,75.478767 69.4414814,78.9875915 67.7971148,81.8354525 C66.1527483,84.6833136 63.1138756,86.4374807 59.8253723,86.4370826 C54.7426318,86.4364675 50.6225828,82.3159197 50.6225828,77.2331792 C50.6225828,72.1504387 54.7426318,68.029891 59.8253723,68.0292758 L59.8253723,68.0292758 Z M32.213662,95.6409861 C35.5021653,95.6405881 38.541038,97.3947552 40.1854045,100.242616 C41.8297711,103.090477 41.8297711,106.599302 40.1854045,109.447163 C38.541038,112.295024 35.5021653,114.049191 32.213662,114.048793 C27.1309215,114.048178 23.0108725,109.92763 23.0108725,104.84489 C23.0108725,99.762149 27.1309215,95.6416013 32.213662,95.6409861 L32.213662,95.6409861 Z" id="Shape"></path>
        </g>
    </g>
</svg>