<?xml version="1.0" encoding="UTF-8"?>
<svg width="20px" height="18px" viewBox="0 0 20 18" version="1.1" xmlns="http://www.w3.org/2000/svg" xmlns:xlink="http://www.w3.org/1999/xlink">
    <!-- Generator: Sketch 53.2 (72643) - https://sketchapp.com -->
    <title>Sunburst</title>
    <desc>Created with Sketch.</desc>
    <g id="Page-1" stroke="none" stroke-width="1" fill="none" fill-rule="evenodd">
        <g id="Sunburst" fill="#5470C6">
            <g id="Group-16">
                <path d="M10.8788172,0.0523859745 C10.8775161,0.0584529317 10.8763212,0.064567892 10.8752348,0.0707292366 L10.6174583,1.53265255 C10.4104921,1.51106563 10.2003971,1.5 9.9877175,1.5 C8.68203435,1.5 7.47376114,1.91706153 6.4888485,2.62523396 L5.52244644,1.47352083 C6.7699341,0.547682566 8.31486674,6.92779167e-14 9.9877175,6.92779167e-14 C10.2892374,6.92779167e-14 10.5866015,0.0177928891 10.8788172,0.0523859745 Z M11.8614546,0.235957866 C14.4414205,0.899513384 16.4843268,2.90130171 17.2061901,5.45733937 L15.734591,5.77013742 C15.1449276,3.80845294 13.5782958,2.26966912 11.6000092,1.71909977 L11.8600426,0.244377414 C11.8605377,0.24156948 11.8610083,0.238762891 11.8614546,0.235957866 Z M9.49693427,15.9860679 L9.49693427,17.4881671 C6.78609318,17.3571589 4.35848246,16.1467273 2.63464698,14.2774171 L3.78519816,13.3119901 C5.23162125,14.8549809 7.24718655,15.8579934 9.49693427,15.9860679 Z M15.4177792,10.0556659 L16.8323945,10.5705438 C16.4186181,11.4914883 15.8244347,12.3138118 15.0948405,12.9925182 L14.1290808,11.8415706 C14.661329,11.3337173 15.1003273,10.7289835 15.4177792,10.0556659 Z M15.7668729,9.1185479 C15.9107759,8.60365612 15.9877175,8.0608134 15.9877175,7.5 C15.9877175,7.24551504 15.9718741,6.99473051 15.9411198,6.74857895 L17.4127906,6.43576566 C17.4621727,6.78340569 17.4877175,7.13871969 17.4877175,7.5 C17.4877175,8.2409801 17.3802623,8.95686268 17.1800846,9.6329149 L15.7668729,9.1185479 Z M17.7745484,10.9134598 L19.1869506,11.4275321 C18.6162373,12.7625547 17.7634085,13.9481985 16.7034014,14.9095264 L15.7383747,13.7594524 C16.5999759,12.9674711 17.2976142,11.9998931 17.7745484,10.9134598 Z M18.1215791,9.97559088 C18.3596707,9.19230214 18.4877175,8.36110453 18.4877175,7.5 C18.4877175,7.06749379 18.4554146,6.64253234 18.3930898,6.22739664 L19.8628061,5.91499879 C19.9450149,6.43122789 19.9877175,6.96062709 19.9877175,7.5 C19.9877175,8.54130465 19.8285584,9.5454357 19.53324,10.4893934 L18.1215791,9.97559088 Z M2.50411977,8 L4.00825439,8 C4.09775472,9.08487472 4.47587743,10.0879107 5.06566121,10.9321467 L3.91291493,11.8994157 C3.10802431,10.7899322 2.59964818,9.45134922 2.50411977,8 Z M2.50411977,7 C2.62982286,5.09021128 3.47037885,3.37567927 4.76072789,2.12146384 L5.72813222,3.27437142 C4.76221045,4.24800659 4.12779389,5.55100674 4.00825439,7 L2.50411977,7 Z M2.41229259e-12,8 L1.50217929,8 C1.60054774,9.69580545 2.19605979,11.2582177 3.14513666,12.5436581 L1.99411474,13.5094802 C0.828064349,11.9608976 0.101566357,10.0626111 2.41229432e-12,8 Z M2.23304274e-12,7 C0.13187551,4.32187019 1.31731536,1.92077316 3.15052714,0.202501308 L4.11642144,1.35360931 C2.60915228,2.79382788 1.63078583,4.78291051 1.50217929,7 L2.23332464e-12,7 Z M4.55255701,12.6680995 L5.70440857,11.7015813 C6.79325225,12.8114714 8.31007763,13.5 9.9877175,13.5 C11.2339623,13.5 12.391464,13.1200458 13.3507017,12.4696584 L14.3190117,13.6236453 C13.0956475,14.4905133 11.601181,15 9.9877175,15 C7.8487237,15 5.91886971,14.104566 4.55255701,12.6680995 Z M5.83538655,10.2862704 C5.30008416,9.4900914 4.9877175,8.53152427 4.9877175,7.5 C4.9877175,6.15943129 5.51529217,4.94208425 6.37414313,4.04425725 L7.34664562,5.20324059 C6.81165497,5.8179112 6.4877175,6.62112578 6.4877175,7.5 C6.4877175,8.16414741 6.67270258,8.78508925 6.99395953,9.31411228 L5.83538655,10.2862704 Z M6.47323382,11.0564603 L7.62946185,10.0862698 C8.2515782,10.6538613 9.07922534,11 9.9877175,11 C10.6215779,11 11.2160835,10.8315019 11.7288861,10.5368538 L12.7037778,11.6986845 C11.9217253,12.2056222 10.9890992,12.5 9.9877175,12.5 C8.61768137,12.5 7.37634359,11.9489769 6.47323382,11.0564603 Z M7.13385377,3.3939213 C7.94311369,2.8304029 8.92683073,2.5 9.9877175,2.5 C12.2187908,2.5 14.1085639,3.96128009 14.7521567,5.97896027 L13.2740745,6.29313634 C12.7824335,4.9547836 11.4965763,4 9.9877175,4 C9.29410777,4 8.64762194,4.2017614 8.103748,4.54979623 L7.13385377,3.3939213 Z M13.4847205,11.0736519 L12.5165001,9.91977179 C13.1181206,9.29122073 13.4877175,8.43877236 13.4877175,7.5 C13.4877175,7.42327302 13.4852486,7.34712268 13.4803859,7.27162409 L14.9586184,6.95741608 C14.9778504,7.13563809 14.9877175,7.31666676 14.9877175,7.5 C14.9877175,8.9002059 14.4121588,10.1659829 13.4847205,11.0736519 Z" id="Combined-Shape"></path>
                <path d="M9.9877175,10 C8.60700562,10 7.4877175,8.88071187 7.4877175,7.5 C7.4877175,6.11928813 8.60700562,5 9.9877175,5 C11.3684294,5 12.4877175,6.11928813 12.4877175,7.5 C12.4877175,8.88071187 11.3684294,10 9.9877175,10 Z M9.9877175,8.5 C10.5400022,8.5 10.9877175,8.05228475 10.9877175,7.5 C10.9877175,6.94771525 10.5400022,6.5 9.9877175,6.5 C9.43543275,6.5 8.9877175,6.94771525 8.9877175,7.5 C8.9877175,8.05228475 9.43543275,8.5 9.9877175,8.5 Z" id="Combined-Shape"></path>
            </g>
        </g>
    </g>
</svg>