<?xml version="1.0" encoding="UTF-8"?>
<svg width="176px" height="154px" viewBox="0 0 176 154" version="1.1" xmlns="http://www.w3.org/2000/svg" xmlns:xlink="http://www.w3.org/1999/xlink">
    <!-- Generator: Sketch 53.2 (72643) - https://sketchapp.com -->
    <title>sunburst</title>
    <desc>Created with Sketch.</desc>
    <g id="Page-1" stroke="none" stroke-width="1" fill="none" fill-rule="evenodd">
        <g id="sunburst" transform="translate(-0.500000, -0.495167)" fill="#5067A2" fill-rule="nonzero">
            <path d="M119.233629,98.0044542 L110.718691,87.8510962 C116.698944,81.6134116 119.776927,73.1460671 119.198407,64.5239101 L132.221771,61.7588152 C132.389075,63.3350954 132.468325,64.9289877 132.468325,66.5404921 C132.486789,78.3855449 127.713147,89.7343283 119.233629,98.0044542 L119.233629,98.0044542 Z M63.3185781,30.3829135 C74.7931609,22.4121709 89.3686325,20.3583561 102.598787,24.8479794 C115.828942,29.3376027 126.144611,39.8381699 130.399028,53.1465133 L117.38447,55.9116082 C114.163414,47.1482037 107.14477,40.3166874 98.2978797,37.3338959 C89.4509892,34.3511045 79.7290566,35.5384174 71.8599325,40.5626897 L63.3185781,30.3829135 L63.3185781,30.3829135 Z M57.4981296,97.8547516 L67.6773104,89.3128978 C73.1543438,94.3147256 80.4453141,97.3616135 88.4495316,97.3616137 C93.8284022,97.3676833 99.1146581,95.9617789 103.779942,93.2844195 L112.365323,103.508226 C105.247152,108.132446 96.9377023,110.586264 88.4495316,110.570666 C76.8578752,110.587037 65.7306915,106.015602 57.4981296,97.8547516 L57.4981296,97.8547516 Z M51.880208,91.0741048 C47.0035405,83.8229191 44.4062144,75.2791485 44.4219328,66.5404921 C44.4219328,54.7315996 49.0624416,44.0146553 56.6263832,36.1068361 L65.194154,46.3130303 C60.3076881,51.9176198 57.6201378,59.1046557 57.6302124,66.5404921 C57.6302124,72.3876992 59.2592335,77.8562467 62.0858054,82.5146391 L51.880208,91.0741048 L51.880208,91.0741048 Z M40.5915316,112.05008 L50.7354904,103.534644 C60.658337,113.682313 74.2570793,119.394563 88.4495316,119.3767 C99.4212094,119.3767 109.618001,116.030407 118.062495,110.306485 L126.586238,120.468649 C115.441046,128.370969 102.111678,132.606084 88.4495316,132.585752 C70.3533434,132.605952 53.0459635,125.179425 40.5915316,112.05008 L40.5915316,112.05008 Z M0.5,62.1374747 C1.61718015,39.3368661 11.5653323,17.8665508 28.2373873,2.27405071 L36.7435195,12.4097967 C23.0478109,25.4703646 14.8209875,43.2437342 13.7258907,62.1374747 L0.5,62.1374747 Z M0.5,70.9435094 L13.7258907,70.9435094 C14.5580363,85.4042184 19.5854188,99.3091254 28.1933598,110.958131 L18.0582064,119.464761 C7.47186066,105.41813 1.35420505,88.5122858 0.5,70.9435094 L0.5,70.9435094 Z M22.5490216,62.1374747 C23.6176776,45.8469855 30.7006658,30.5346593 42.4230797,19.1728312 L50.9380174,29.3261893 C42.1806215,38.1364527 36.8165849,49.7571326 35.7925234,62.1374747 L22.5490216,62.1374747 L22.5490216,62.1374747 Z M22.5490216,70.9435094 L35.7925234,70.9435094 C36.5571371,80.2216635 39.7688087,89.1310032 45.0999577,96.7628032 L34.9559989,105.278239 C27.6604148,95.2350677 23.3587128,83.3306553 22.5490216,70.9435094 Z M160.064824,88.3354281 C162.208458,81.2692542 163.294499,73.9246962 163.287644,66.5404921 C163.287927,62.7888436 163.014228,59.0421838 162.468731,55.3304099 L175.40404,52.5829271 C177.539642,66.0542744 176.545357,79.8364744 172.498218,92.86173 L160.064824,88.3354281 Z M157.009309,96.5954887 L169.451508,101.130596 C164.453629,112.804913 156.992417,123.261434 147.578597,131.784403 L139.08127,121.666269 C146.731696,114.64362 152.837128,106.105711 157.009309,96.5954887 L157.009309,96.5954887 Z M139.336631,80.7886563 C141.234304,74.0037443 141.75525,66.9076826 140.868791,59.9183539 L153.830516,57.1620651 C155.148964,66.5886629 154.449628,76.187832 151.77883,85.3237642 L139.336631,80.7886563 Z M136.263504,89.0487169 L148.714509,93.5750188 C145.090489,101.633987 139.889912,108.885878 133.419321,114.903235 L124.913189,104.776295 C129.629614,100.274719 133.477161,94.943361 136.263504,89.0487169 L136.263504,89.0487169 Z M84.1260215,141.268503 L84.1260215,154.495167 C61.049526,153.386197 39.3397973,143.226766 23.7025446,126.218989 L33.8288923,117.71236 C46.9380429,131.745712 64.9535467,140.183088 84.1260215,141.268503 L84.1260215,141.268503 Z M104.94227,2.57345585 C127.679056,8.4576749 145.591926,25.956003 152.007773,48.5497632 L139.046048,51.306052 C133.813709,33.9700374 120.081572,20.5128194 102.64403,15.6328053 L104.933465,2.64390412 L104.94227,2.57345585 L104.94227,2.57345585 Z M96.2952498,0.953145396 L96.2600278,1.12046007 L93.9970091,13.9948829 C81.1068487,12.6102912 68.1594065,16.034712 57.6390179,23.6110727 L49.1240802,13.4665207 C60.4957814,5.02434618 74.2870046,0.475385223 88.4495316,0.495231624 C91.0999932,0.495231624 93.7152325,0.644934198 96.2952498,0.953145396 L96.2952498,0.953145396 Z" id="Shape"></path>
            <path d="M88.5,75.295167 C93.3601058,75.295167 97.3,71.3552728 97.3,66.495167 C97.3,61.6350611 93.3601058,57.6951669 88.5,57.6951669 C83.6398942,57.6951669 79.7,61.6350611 79.7,66.495167 C79.7,71.3552728 83.6398942,75.295167 88.5,75.295167 Z M88.5,88.495167 C76.3497355,88.495167 66.5,78.6454315 66.5,66.495167 C66.5,54.3449025 76.3497355,44.495167 88.5,44.495167 C100.650264,44.495167 110.5,54.3449025 110.5,66.495167 C110.5,78.6454315 100.650264,88.495167 88.5,88.495167 Z" id="Shape"></path>
        </g>
    </g>
</svg>