<?xml version="1.0" encoding="UTF-8"?>
<svg width="18px" height="15px" viewBox="0 0 18 15" version="1.1" xmlns="http://www.w3.org/2000/svg" xmlns:xlink="http://www.w3.org/1999/xlink">
    <!-- Generator: Sketch 53.2 (72643) - https://sketchapp.com -->
    <title>Themeriver</title>
    <desc>Created with Sketch.</desc>
    <g id="Page-1" stroke="none" stroke-width="1" fill="none" fill-rule="evenodd">
        <g id="Themeriver" fill="#5470C6" fill-rule="nonzero">
            <path d="M18,9.06069502 C17.999994,9.06069813 16.7839253,9.69232559 15.4906459,9.69232559 C13.6752919,9.69232559 13.6432326,9.21624927 12.3009589,9.21624927 C10.6949946,9.21624927 10.4499005,10.0850527 8.47058824,10.0850527 C6.49127596,10.0850527 5.60052704,9.61530607 4.02573335,9.69232559 C2.45093966,9.7693451 2.11764706,10.4935841 0,10.4935841 L9.78049267e-14,5.87488959 C1.70979412,5.87488959 2.78910335,5.24183995 4.02573335,5.24358771 C5.26236335,5.24533548 6.36810951,6.15761028 7.91159008,6.0835797 C9.45507065,6.00954913 10.6302929,5.62584222 12.3009589,5.62584222 C13.9716249,5.62584222 14.5275765,6.74623171 18,6.56168859 C18,7.68701899 18,8.52002113 18,9.06069502 Z" id="Combined-Shape"></path>
            <path d="M18,9.77812936 C18,10.8445804 18,11.3778059 18,11.3778059 C18,11.3778059 16.7839285,12.6410671 15.4906459,12.6410671 C13.6752919,12.6410671 13.6432326,11.6889144 12.3009589,11.6889144 C10.6949946,11.6889144 10.4499005,13.4265213 8.47058824,13.4265213 C6.49127596,13.4265213 5.60052704,12.487028 4.02573335,12.6410671 C2.45093966,12.7951061 2.11764706,14.2435841 0,14.2435841 L3.1763822e-14,11.2435841 C2.11764706,11.2435841 2.45093966,10.5028851 4.02573335,10.4241152 C5.60052704,10.3453452 6.49127596,10.8257679 8.47058824,10.8257679 C10.4499005,10.8257679 10.6949946,9.93721893 12.3009589,9.93721893 C13.6432326,9.93721893 13.6752919,10.4241152 15.4906459,10.4241152 C16.7839059,10.4241152 17.9999575,9.77815194 18,9.77812936 Z" id="Combined-Shape"></path>
            <path d="M5.69904109,0.688992213 C7.33217956,0.688992213 8.41312191,1.62033102 9.95866191,1.62033102 C11.1258119,1.62033102 11.5124169,0 13.4764204,0 C15.4404238,0 15.6325321,1.08134339 18,1.08134339 C18,3.67309639 18,4.96897289 18,4.96897289 C15.9791619,4.88400588 15.2279582,4.34031007 13.7513549,4.34031007 C12.2747516,4.34031007 11.8126956,5.25028404 9.95866191,5.27840051 C7.62125316,5.31384736 6.88414802,4.72096804 5.69904109,4.72096804 C3.87366104,4.72096804 2.58824943,6 0,6 C0,6 0,4.89354004 0,2.68062013 C3.33333333,2.68062013 4.06590262,0.688992213 5.69904109,0.688992213 Z" id="Path" transform="translate(9.000000, 3.000000) scale(-1, 1) translate(-9.000000, -3.000000) "></path>
        </g>
    </g>
</svg>