<?xml version="1.0" encoding="UTF-8"?>
<svg width="175px" height="130px" viewBox="0 0 175 130" version="1.1" xmlns="http://www.w3.org/2000/svg" xmlns:xlink="http://www.w3.org/1999/xlink">
    <!-- Generator: Sketch 53.2 (72643) - https://sketchapp.com -->
    <title>themeriver</title>
    <desc>Created with Sketch.</desc>
    <g id="Page-1" stroke="none" stroke-width="1" fill="none" fill-rule="evenodd">
        <g id="themeriver" fill="#5067A2" fill-rule="nonzero">
            <path d="M4.9275627,42.5798026 C5.20117275,42.5813119 5.47437729,42.5585448 5.74396361,42.5117692 C10.5811329,41.6686599 15.2612908,40.0922201 19.6227791,37.836902 C26.4649962,34.328322 32.1798026,30.0130599 43.8718299,30.0130599 C55.5638572,30.0130599 63.7861807,41.3940774 79.5602127,41.4912681 C95.3342445,41.5787397 96.9864845,31.7333333 115.384662,31.7333333 C132.976158,31.7333333 137.621868,44.6208049 153.6,45.4566438 C160.490812,45.8162491 166.6041,44.9318147 171.930144,42.7936218 C173.778744,42.0602993 174.992296,40.2727177 174.991648,38.2839788 L174.991648,26.7960517 C174.987486,25.3270305 174.319017,23.9387356 173.173189,23.0194311 C172.027362,22.1001266 170.527173,21.7484925 169.092179,22.0628701 C165.933485,22.7529233 162.084738,22.8403949 157.5265,22.3155656 C145.533181,20.9160213 134.676993,5.82232335 119.476386,5.82232348 C102.788762,5.82232348 99.3093394,11.1678056 81.9899772,11.1678056 C64.6803341,11.1678056 59.6069856,0.126955258 43.8718299,0.126955258 C37.3211845,0.126955258 27.9422931,3.46059231 17.9025057,7.6009112 C12.9652241,9.65163256 8.49445708,10.8373576 4.50964317,11.1678056 C1.98627058,11.3754189 0.0451326562,13.4857192 0.0485952544,16.0176158 L0.0583143318,37.7202733 C0.0583143318,40.4027335 2.24510251,42.5798026 4.9275627,42.5798026 M170.132118,85.5283219 C169.634444,85.5282959 169.139638,85.6036638 168.664541,85.7518603 C162.658162,87.6665148 157.633409,88.7064541 153.551405,88.9008353 C139.342141,89.522855 131.343356,82.7583903 118.543356,82.7583903 C104.227183,82.7583903 97.8611998,94.1491269 80.444647,94.1491269 C61.0356872,94.1491269 52.3274108,84.1287775 42.4917236,84.1287775 C35.416249,84.1287775 28.7392558,88.7453303 19.9337889,92.9828398 C15.5893698,95.0627183 10.3507973,96.5594533 4.2083523,97.4438876 C1.81553905,97.7920745 0.0427391378,99.8465342 0.0485952544,102.264541 L0.0485952544,124.297646 C0.0496707163,125.687409 0.645723287,127.010209 1.68608385,127.931672 C2.72644442,128.853134 4.11154706,129.285071 5.491268,129.118299 C10.3313591,128.544875 15.142293,127.670159 19.9337889,126.513592 C29.8083523,124.132422 34.2305239,119.068793 42.4917236,118.388459 C54.5822323,117.397115 66.5658314,123.267426 82.4759302,121.323614 C98.386029,119.379803 106.3265,110.156416 120.273349,108.543052 C132.577676,107.12407 140.586181,111.293546 152.083827,110.030068 C159.995141,109.174791 166.81792,107.085194 172.552164,103.780714 C174.06095,102.911932 174.991067,101.303681 174.991648,99.5626424 L174.991648,90.3878512 C174.991648,87.7040073 172.815962,85.5283219 170.132118,85.5283219" id="Shape"></path>
            <path d="M170.132118,55.1659834 C169.755896,55.1642513 169.380769,55.206657 169.014427,55.2923311 C163.386911,56.5597226 157.597804,56.9530934 151.850569,56.4586181 C133.889749,55.0007593 128.388762,42.7839029 114.655733,42.7839029 C103.264996,42.7839029 93.9249811,52.940319 79.7157175,52.5807138 C59.2668185,52.0656038 52.6578588,41.0733486 42.0738042,41.0733486 C35.5231587,41.0733486 26.5330296,47.0991647 20.6724373,49.7524677 C15.5296251,52.0293301 10.0450596,53.4382394 4.44160976,53.9219438 C1.94888222,54.1623556 0.0470459996,56.2577415 0.0485952544,58.762035 L0.0485952544,80.8242976 C0.0491745866,82.2971429 0.717699925,83.69025 1.86632297,84.6121711 C3.01494602,85.5340923 4.51970635,85.8853329 5.95778278,85.5671982 C11.10094,84.3721963 16.0531556,82.4685044 20.6724373,79.9107062 C28.3018983,75.7703873 34.249962,72.7866364 41.8016705,72.7866364 C56.6037965,72.7866364 63.1252849,82.7778284 79.3755505,82.7778284 C94.6441914,82.7778284 103.070615,71.5231587 117.639484,71.5231587 C132.208352,71.5231587 139.964161,77.2185269 150.314958,77.5295368 C156.48656,77.7044798 163.707821,76.0813971 171.988459,72.6408505 C173.80584,71.8896408 174.991328,70.1171628 174.991648,68.1506454 L174.991648,60.0255125 C174.991648,57.3416686 172.815962,55.1659834 170.132118,55.1659834" id="Path"></path>
        </g>
    </g>
</svg>