<?xml version="1.0" encoding="UTF-8"?>
<svg width="174px" height="147px" viewBox="0 0 174 147" version="1.1" xmlns="http://www.w3.org/2000/svg" xmlns:xlink="http://www.w3.org/1999/xlink">
    <!-- Generator: Sketch 53.2 (72643) - https://sketchapp.com -->
    <title>tree (1)</title>
    <desc>Created with Sketch.</desc>
    <defs>
        <polygon id="path-1" points="2 4.69629167 172 4.69629167 172 146.375 2 146.375"></polygon>
    </defs>
    <g id="Page-1" stroke="none" stroke-width="1" fill="none" fill-rule="evenodd">
        <g id="tree-(1)">
            <mask id="mask-2" fill="white">
                <use xlink:href="#path-1"></use>
            </mask>
            <g id="path-1"></g>
            <path d="M174,127.4965 C173.994333,137.928125 165.534,146.380667 155.101667,146.375708 C144.670042,146.370042 136.216792,137.909 136.222458,127.476667 C136.222458,127.470292 136.222458,127.464625 136.222458,127.45825 C136.226708,118.755667 142.117917,111.435042 150.127042,109.248417 L150.127042,80.2563333 L91.4625,80.2563333 L91.4625,109.120208 C99.7407917,111.126208 105.890542,118.582125 105.889125,127.476667 C105.889125,127.483042 105.889125,127.490125 105.889125,127.4965 C105.883458,137.928125 97.4224167,146.380667 86.9907917,146.375708 C76.5584583,146.370042 68.1059167,137.909 68.1115833,127.476667 C68.1122917,118.764875 74.0049167,111.440708 82.0182917,109.254083 L82.0182917,80.2563333 L23.3530417,80.2563333 L23.3530417,109.120917 C31.630625,111.127625 37.7789583,118.582833 37.77825,127.476667 C37.77825,127.478792 37.77825,127.480917 37.77825,127.483042 C37.776125,137.915375 29.3179167,146.37075 18.8862917,146.368625 C8.45395833,146.367208 -0.00141666667,137.909 0,127.476667 C0.00141666667,118.764167 5.89545833,111.439292 13.9088333,109.254083 L13.9088333,80.2563333 C13.9088333,75.0500833 18.1425417,70.812125 23.3530417,70.812125 L82.0182917,70.812125 L82.0182917,37.8179167 C74.0006667,35.6305833 68.106625,28.298625 68.1115833,19.58825 C68.1122917,9.15025 76.5705,0.694875 87.0028333,0.696291667 C97.4344583,0.697708333 105.890542,9.15591667 105.889125,19.58825 C105.889125,19.594625 105.889125,19.601 105.889125,19.607375 C105.884167,28.4976667 99.7358333,35.9465 91.4625,37.9517917 L91.4625,70.812125 L150.127042,70.812125 C155.337542,70.812125 159.57125,75.0500833 159.57125,80.2563333 L159.57125,109.113125 C167.853083,111.119125 174.00425,118.579292 174,127.476667 C174,127.483042 174,127.490125 174,127.4965 Z" id="Fill-1" fill="#5067A2" fill-rule="nonzero"></path>
        </g>
    </g>
</svg>