<?xml version="1.0" encoding="UTF-8"?>
<svg width="160px" height="132px" viewBox="0 0 160 132" version="1.1" xmlns="http://www.w3.org/2000/svg" xmlns:xlink="http://www.w3.org/1999/xlink">
    <!-- Generator: Sketch 53.2 (72643) - https://sketchapp.com -->
    <title>treemap</title>
    <desc>Created with Sketch.</desc>
    <g id="Page-1" stroke="none" stroke-width="1" fill="none" fill-rule="evenodd">
        <g id="treemap" transform="translate(-0.500000, -0.095199)" fill="#5067A2" fill-rule="nonzero">
            <path d="M84.9444444,79.2951993 L4.9444444,79.2951993 C2.48984554,79.2951993 0.5,81.2651464 0.5,83.6951993 L0.5,127.695199 C0.5,130.125252 2.48984554,132.095199 4.9444444,132.095199 L84.9444444,132.095199 C86.1231844,132.095199 87.2536462,131.631629 88.0871413,130.806469 C88.9206363,129.981309 89.3888889,128.862152 89.3888889,127.695199 L89.3888889,83.6951993 C89.3888889,82.5282467 88.9206363,81.4090895 88.0871413,80.5839295 C87.2536462,79.7587694 86.1231844,79.2951993 84.9444444,79.2951993 L84.9444444,79.2951993 Z M156.055556,105.695199 L102.722222,105.695199 C101.543482,105.695199 100.41302,106.158769 99.5795254,106.983929 C98.7460304,107.80909 98.2777777,108.928247 98.2777777,110.095199 L98.2777777,127.695199 C98.2777777,128.862152 98.7460304,129.981309 99.5795254,130.806469 C100.41302,131.631629 101.543482,132.095199 102.722222,132.095199 L156.055556,132.095199 C158.510154,132.095199 160.5,130.125252 160.5,127.695199 L160.5,110.095199 C160.5,107.665146 158.510154,105.695199 156.055556,105.695199 L156.055556,105.695199 Z M156.055556,61.6951994 L102.722222,61.6951994 C101.543482,61.6951994 100.41302,62.1587694 99.5795254,62.9839295 C98.7460304,63.8090896 98.2777777,64.9282468 98.2777777,66.0951993 L98.2777777,92.4951993 C98.2777777,93.6621519 98.7460304,94.7813091 99.5795254,95.6064692 C100.41302,96.4316293 101.543482,96.8951993 102.722222,96.8951993 L156.055556,96.8951993 C158.510154,96.8951993 160.5,94.9252522 160.5,92.4951993 L160.5,66.0951993 C160.5,63.6651465 158.510154,61.6951994 156.055556,61.6951994 L156.055556,61.6951994 Z M156.055556,0.0951993491 L102.722222,0.0951993491 C101.543482,0.0951993149 100.41302,0.558769393 99.5795254,1.38392945 C98.7460304,2.20908951 98.2777777,3.32824674 98.2777777,4.49519931 L98.2777777,48.4951994 C98.2777777,49.662152 98.7460304,50.7813092 99.5795254,51.6064692 C100.41302,52.4316293 101.543482,52.8951994 102.722222,52.8951993 L156.055556,52.8951993 C158.510154,52.8951993 160.5,50.9252523 160.5,48.4951994 L160.5,4.49519931 C160.5,2.06514643 158.510154,0.0951993491 156.055556,0.0951993491 L156.055556,0.0951993491 Z M89.3888889,4.49519931 L89.3888889,66.0951993 C89.3888889,67.2621519 88.9206363,68.3813091 88.0871413,69.2064692 C87.2536462,70.0316293 86.1231844,70.4951993 84.9444444,70.4951993 L4.9444444,70.4951993 C2.48984554,70.4951993 0.5,68.5252522 0.5,66.0951993 L0.5,4.49519931 C0.5,2.06514643 2.48984554,0.0951993491 4.9444444,0.0951993491 L84.9444444,0.0951993491 C86.1231844,0.0951993149 87.2536462,0.558769393 88.0871413,1.38392945 C88.9206363,2.20908951 89.3888889,3.32824674 89.3888889,4.49519931 Z" id="Shape"></path>
        </g>
    </g>
</svg>